<?xml version="1.0" encoding="UTF-8" standalone="no"?>
<!DOCTYPE svg PUBLIC "-//W3C//DTD SVG 1.1//EN"
 "http://www.w3.org/Graphics/SVG/1.1/DTD/svg11.dtd">
<!-- Generated by graphviz version 2.38.0 (20140413.2041)
 -->
<!-- Title: %3 Pages: 1 -->
<svg width="889pt" height="1055pt"
 viewBox="0.00 0.00 889.00 1055.00" xmlns="http://www.w3.org/2000/svg" xmlns:xlink="http://www.w3.org/1999/xlink">
<g id="graph0" class="graph" transform="scale(1 1) rotate(0) translate(4 1051)">
<title>%3</title>
<polygon fill="white" stroke="none" points="-4,4 -4,-1051 885,-1051 885,4 -4,4"/>
<!-- qf -->
<g id="node1" class="node"><title>qf</title>
<ellipse fill="none" stroke="black" cx="749.5" cy="-480" rx="18.3625" ry="18.3625"/>
<ellipse fill="none" stroke="black" cx="749.5" cy="-480" rx="22.3986" ry="22.3986"/>
<text text-anchor="middle" x="749.5" y="-476.3" font-family="Times,serif" font-size="14.00">qf</text>
</g>
<!-- q0 -->
<g id="node2" class="node"><title>q0</title>
<ellipse fill="none" stroke="black" cx="27" cy="-419" rx="27" ry="18"/>
<text text-anchor="middle" x="27" y="-415.3" font-family="Times,serif" font-size="14.00">q0</text>
</g>
<!-- q1 -->
<g id="node3" class="node"><title>q1</title>
<ellipse fill="none" stroke="black" cx="241" cy="-930" rx="27" ry="18"/>
<text text-anchor="middle" x="241" y="-926.3" font-family="Times,serif" font-size="14.00">q1</text>
</g>
<!-- q0&#45;&gt;q1 -->
<g id="edge1" class="edge"><title>q0&#45;&gt;q1</title>
<path fill="none" stroke="black" d="M28.0183,-437.277C28.3837,-507.204 32.4823,-757.19 72,-824 102.025,-874.761 166.902,-905.005 206.671,-919.492"/>
<polygon fill="black" stroke="black" points="205.61,-922.829 216.204,-922.838 207.928,-916.224 205.61,-922.829"/>
<text text-anchor="middle" x="98" y="-879.8" font-family="Times,serif" font-size="14.00">*,{,},(,),/</text>
</g>
<!-- q2 -->
<g id="node4" class="node"><title>q2</title>
<ellipse fill="none" stroke="black" cx="408" cy="-396" rx="27" ry="18"/>
<text text-anchor="middle" x="408" y="-392.3" font-family="Times,serif" font-size="14.00">q2</text>
</g>
<!-- q0&#45;&gt;q2 -->
<g id="edge2" class="edge"><title>q0&#45;&gt;q2</title>
<path fill="none" stroke="black" d="M54.258,-419.887C77.3615,-420.621 111.909,-421.604 142,-422 165.998,-422.316 172.045,-423.47 196,-422 257.98,-418.196 329.626,-408.162 371.464,-401.73"/>
<polygon fill="black" stroke="black" points="372.092,-405.175 381.434,-400.178 371.015,-398.258 372.092,-405.175"/>
<text text-anchor="middle" x="169" y="-425.8" font-family="Times,serif" font-size="14.00">letra</text>
</g>
<!-- q3 -->
<g id="node5" class="node"><title>q3</title>
<ellipse fill="none" stroke="black" cx="313" cy="-305" rx="27" ry="18"/>
<text text-anchor="middle" x="313" y="-301.3" font-family="Times,serif" font-size="14.00">q3</text>
</g>
<!-- q0&#45;&gt;q3 -->
<g id="edge3" class="edge"><title>q0&#45;&gt;q3</title>
<path fill="none" stroke="black" d="M41.8488,-403.721C50.1318,-395.044 61.1318,-384.294 72,-376 100.662,-354.126 108.159,-347.44 142,-335 186.357,-318.695 240.57,-311.094 275.667,-307.661"/>
<polygon fill="black" stroke="black" points="276.273,-311.12 285.913,-306.724 275.636,-304.149 276.273,-311.12"/>
</g>
<!-- q4 -->
<g id="node6" class="node"><title>q4</title>
<ellipse fill="none" stroke="black" cx="169" cy="-362" rx="27" ry="18"/>
<text text-anchor="middle" x="169" y="-358.3" font-family="Times,serif" font-size="14.00">q4</text>
</g>
<!-- q0&#45;&gt;q4 -->
<g id="edge4" class="edge"><title>q0&#45;&gt;q4</title>
<path fill="none" stroke="black" d="M50.4934,-409.842C73.6594,-400.41 109.969,-385.627 136.096,-374.989"/>
<polygon fill="black" stroke="black" points="137.62,-378.148 145.562,-371.135 134.981,-371.665 137.62,-378.148"/>
<text text-anchor="middle" x="98" y="-403.8" font-family="Times,serif" font-size="14.00">digito</text>
</g>
<!-- q5 -->
<g id="node7" class="node"><title>q5</title>
<ellipse fill="none" stroke="black" cx="169" cy="-846" rx="27" ry="18"/>
<text text-anchor="middle" x="169" y="-842.3" font-family="Times,serif" font-size="14.00">q5</text>
</g>
<!-- q0&#45;&gt;q5 -->
<g id="edge5" class="edge"><title>q0&#45;&gt;q5</title>
<path fill="none" stroke="black" d="M29.1452,-437.016C33.0951,-495.867 47.2814,-681.778 72,-736 88.5533,-772.311 121.055,-805.564 143.628,-825.786"/>
<polygon fill="black" stroke="black" points="141.327,-828.424 151.156,-832.38 145.939,-823.158 141.327,-828.424"/>
<text text-anchor="middle" x="98" y="-808.8" font-family="Times,serif" font-size="14.00">&#45;</text>
</g>
<!-- q10 -->
<g id="node8" class="node"><title>q10</title>
<ellipse fill="none" stroke="black" cx="313" cy="-762" rx="27" ry="18"/>
<text text-anchor="middle" x="313" y="-758.3" font-family="Times,serif" font-size="14.00">q10</text>
</g>
<!-- q0&#45;&gt;q10 -->
<g id="edge6" class="edge"><title>q0&#45;&gt;q10</title>
<path fill="none" stroke="black" d="M31.4566,-437.111C37.0547,-463.549 49.7813,-513.624 72,-551 125.889,-641.652 232.073,-714.015 283.18,-745.268"/>
<polygon fill="black" stroke="black" points="281.396,-748.28 291.766,-750.448 285.012,-742.286 281.396,-748.28"/>
<text text-anchor="middle" x="169" y="-686.8" font-family="Times,serif" font-size="14.00">=</text>
</g>
<!-- q13 -->
<g id="node9" class="node"><title>q13</title>
<ellipse fill="none" stroke="black" cx="313" cy="-657" rx="27" ry="18"/>
<text text-anchor="middle" x="313" y="-653.3" font-family="Times,serif" font-size="14.00">q13</text>
</g>
<!-- q0&#45;&gt;q13 -->
<g id="edge7" class="edge"><title>q0&#45;&gt;q13</title>
<path fill="none" stroke="black" d="M32.7148,-436.653C38.9429,-457.326 51.5765,-491.7 72,-515 130.489,-581.728 228.246,-625.694 279.064,-645.288"/>
<polygon fill="black" stroke="black" points="277.985,-648.622 288.576,-648.882 280.458,-642.074 277.985,-648.622"/>
<text text-anchor="middle" x="169" y="-610.8" font-family="Times,serif" font-size="14.00">&lt;</text>
</g>
<!-- q15 -->
<g id="node10" class="node"><title>q15</title>
<ellipse fill="none" stroke="black" cx="313" cy="-553" rx="27" ry="18"/>
<text text-anchor="middle" x="313" y="-549.3" font-family="Times,serif" font-size="14.00">q15</text>
</g>
<!-- q0&#45;&gt;q15 -->
<g id="edge8" class="edge"><title>q0&#45;&gt;q15</title>
<path fill="none" stroke="black" d="M35.6701,-436.219C43.0833,-451.146 55.5958,-472.427 72,-486 131.433,-535.176 224.513,-548.352 275.531,-551.82"/>
<polygon fill="black" stroke="black" points="275.563,-555.328 285.752,-552.423 275.975,-548.34 275.563,-555.328"/>
<text text-anchor="middle" x="169" y="-543.8" font-family="Times,serif" font-size="14.00">&gt;</text>
</g>
<!-- q17 -->
<g id="node11" class="node"><title>q17</title>
<ellipse fill="none" stroke="black" cx="313" cy="-251" rx="27" ry="18"/>
<text text-anchor="middle" x="313" y="-247.3" font-family="Times,serif" font-size="14.00">q17</text>
</g>
<!-- q0&#45;&gt;q17 -->
<g id="edge9" class="edge"><title>q0&#45;&gt;q17</title>
<path fill="none" stroke="black" d="M34.1529,-401.341C41.0733,-383.557 53.7787,-356.216 72,-338 128.447,-281.569 224.249,-261.479 276.099,-254.527"/>
<polygon fill="black" stroke="black" points="276.674,-257.982 286.163,-253.269 275.806,-251.036 276.674,-257.982"/>
<text text-anchor="middle" x="169" y="-292.8" font-family="Times,serif" font-size="14.00">&amp;</text>
</g>
<!-- q19 -->
<g id="node12" class="node"><title>q19</title>
<ellipse fill="none" stroke="black" cx="169" cy="-219" rx="27" ry="18"/>
<text text-anchor="middle" x="169" y="-215.3" font-family="Times,serif" font-size="14.00">q19</text>
</g>
<!-- q0&#45;&gt;q19 -->
<g id="edge10" class="edge"><title>q0&#45;&gt;q19</title>
<path fill="none" stroke="black" d="M30.1894,-401.035C35.4218,-361.016 49.8866,-266.301 72,-244 87.49,-228.379 111.423,-222.122 131.516,-219.774"/>
<polygon fill="black" stroke="black" points="131.96,-223.249 141.609,-218.874 131.338,-216.276 131.96,-223.249"/>
<text text-anchor="middle" x="98" y="-247.8" font-family="Times,serif" font-size="14.00">/</text>
</g>
<!-- q21 -->
<g id="node13" class="node"><title>q21</title>
<ellipse fill="none" stroke="black" cx="313" cy="-499" rx="27" ry="18"/>
<text text-anchor="middle" x="313" y="-495.3" font-family="Times,serif" font-size="14.00">q21</text>
</g>
<!-- q0&#45;&gt;q21 -->
<g id="edge11" class="edge"><title>q0&#45;&gt;q21</title>
<path fill="none" stroke="black" d="M39.648,-435.013C47.6254,-444.731 59.0749,-456.481 72,-463 138.239,-496.409 226.899,-500.891 275.8,-500.433"/>
<polygon fill="black" stroke="black" points="275.958,-503.931 285.897,-500.262 275.84,-496.932 275.958,-503.931"/>
<text text-anchor="middle" x="169" y="-499.8" font-family="Times,serif" font-size="14.00">/</text>
</g>
<!-- q23 -->
<g id="node14" class="node"><title>q23</title>
<ellipse fill="none" stroke="black" cx="169" cy="-132" rx="27" ry="18"/>
<text text-anchor="middle" x="169" y="-128.3" font-family="Times,serif" font-size="14.00">q23</text>
</g>
<!-- q0&#45;&gt;q23 -->
<g id="edge12" class="edge"><title>q0&#45;&gt;q23</title>
<path fill="none" stroke="black" d="M27.4263,-400.795C27.037,-361.317 30.7978,-266.224 72,-202 87.7176,-177.5 115.278,-158.74 136.849,-146.837"/>
<polygon fill="black" stroke="black" points="138.773,-149.779 145.973,-142.007 135.498,-143.592 138.773,-149.779"/>
<text text-anchor="middle" x="98" y="-205.8" font-family="Times,serif" font-size="14.00">&quot;</text>
</g>
<!-- q25 -->
<g id="node15" class="node"><title>q25</title>
<ellipse fill="none" stroke="black" cx="313" cy="-81" rx="27" ry="18"/>
<text text-anchor="middle" x="313" y="-77.3" font-family="Times,serif" font-size="14.00">q25</text>
</g>
<!-- q0&#45;&gt;q25 -->
<g id="edge13" class="edge"><title>q0&#45;&gt;q25</title>
<path fill="none" stroke="black" d="M29.3328,-401.021C33.5079,-348.041 47.5342,-193.519 72,-150 92.0803,-114.282 103.959,-105.228 142,-90 185.64,-72.5311 240.673,-73.2944 276.097,-76.3781"/>
<polygon fill="black" stroke="black" points="276.133,-79.8984 286.427,-77.392 276.817,-72.9319 276.133,-79.8984"/>
<text text-anchor="middle" x="169" y="-93.8" font-family="Times,serif" font-size="14.00">+</text>
</g>
<!-- q1&#45;&gt;qf -->
<g id="edge14" class="edge"><title>q1&#45;&gt;qf</title>
<path fill="none" stroke="black" d="M266.438,-936.103C342.743,-953.539 578.418,-994.85 695,-873 744.188,-821.589 748.825,-597.071 748.786,-512.438"/>
<polygon fill="black" stroke="black" points="752.285,-512.361 748.758,-502.371 745.285,-512.38 752.285,-512.361"/>
<text text-anchor="middle" x="408" y="-960.8" font-family="Times,serif" font-size="14.00">caracter</text>
</g>
<!-- q2&#45;&gt;qf -->
<g id="edge15" class="edge"><title>q2&#45;&gt;qf</title>
<path fill="none" stroke="black" d="M435.094,-393.703C473.018,-391.143 545.25,-389.218 604,-405 648.336,-416.91 694.58,-443.898 722.464,-462.036"/>
<polygon fill="black" stroke="black" points="720.576,-464.984 730.847,-467.584 724.439,-459.146 720.576,-464.984"/>
<text text-anchor="middle" x="540" y="-408.8" font-family="Times,serif" font-size="14.00">caracter &#45; {letra,digito}</text>
</g>
<!-- q2&#45;&gt;q2 -->
<g id="edge16" class="edge"><title>q2&#45;&gt;q2</title>
<path fill="none" stroke="black" d="M392.273,-410.792C387.152,-421.417 392.395,-432 408,-432 418.485,-432 424.292,-427.222 425.421,-420.865"/>
<polygon fill="black" stroke="black" points="428.837,-420.073 423.727,-410.792 421.934,-421.234 428.837,-420.073"/>
<text text-anchor="middle" x="408" y="-435.8" font-family="Times,serif" font-size="14.00">letra, digito</text>
</g>
<!-- q3&#45;&gt;qf -->
<g id="edge17" class="edge"><title>q3&#45;&gt;qf</title>
<path fill="none" stroke="black" d="M339.897,-303.424C416.646,-299.306 640.903,-291.423 695,-336 728.523,-363.624 741.045,-414.386 745.72,-447.663"/>
<polygon fill="black" stroke="black" points="742.273,-448.308 746.979,-457.801 749.22,-447.446 742.273,-448.308"/>
<text text-anchor="middle" x="540" y="-310.8" font-family="Times,serif" font-size="14.00">caracter &#45; {digito}</text>
</g>
<!-- q3&#45;&gt;q3 -->
<g id="edge18" class="edge"><title>q3&#45;&gt;q3</title>
<path fill="none" stroke="black" d="M300.453,-321.29C297.427,-331.389 301.609,-341 313,-341 320.297,-341 324.636,-337.056 326.017,-331.566"/>
<polygon fill="black" stroke="black" points="329.5,-331.12 325.547,-321.29 322.507,-331.44 329.5,-331.12"/>
<text text-anchor="middle" x="313" y="-344.8" font-family="Times,serif" font-size="14.00">digito</text>
</g>
<!-- q4&#45;&gt;qf -->
<g id="edge19" class="edge"><title>q4&#45;&gt;qf</title>
<path fill="none" stroke="black" d="M195.533,-366.078C201.572,-366.877 208,-367.593 214,-368 237.945,-369.625 244.005,-368.5 268,-368 300.021,-367.333 309.357,-374.315 340,-365 348.97,-362.273 348.975,-356.539 358,-354 503.886,-312.953 568.267,-322.896 695,-406 711.956,-417.119 725.323,-435.598 734.455,-451.308"/>
<polygon fill="black" stroke="black" points="731.443,-453.095 739.338,-460.161 737.573,-449.714 731.443,-453.095"/>
<text text-anchor="middle" x="408" y="-357.8" font-family="Times,serif" font-size="14.00">caracter &#45; {digito}</text>
</g>
<!-- q4&#45;&gt;q3 -->
<g id="edge20" class="edge"><title>q4&#45;&gt;q3</title>
<path fill="none" stroke="black" d="M194.266,-355.552C214.411,-349.852 243.608,-340.78 268,-330 273.223,-327.691 278.631,-324.943 283.792,-322.128"/>
<polygon fill="black" stroke="black" points="285.748,-325.042 292.724,-317.068 282.298,-318.952 285.748,-325.042"/>
<text text-anchor="middle" x="241" y="-352.8" font-family="Times,serif" font-size="14.00">.</text>
</g>
<!-- q4&#45;&gt;q4 -->
<g id="edge21" class="edge"><title>q4&#45;&gt;q4</title>
<path fill="none" stroke="black" d="M156.801,-378.29C153.859,-388.389 157.926,-398 169,-398 176.094,-398 180.313,-394.056 181.655,-388.566"/>
<polygon fill="black" stroke="black" points="185.139,-388.125 181.199,-378.29 178.146,-388.436 185.139,-388.125"/>
<text text-anchor="middle" x="169" y="-401.8" font-family="Times,serif" font-size="14.00">digito</text>
</g>
<!-- q5&#45;&gt;qf -->
<g id="edge22" class="edge"><title>q5&#45;&gt;qf</title>
<path fill="none" stroke="black" d="M196.089,-847.156C297.142,-851.37 658.974,-863.897 695,-829 739.784,-785.619 747.176,-590.799 748.324,-512.617"/>
<polygon fill="black" stroke="black" points="751.826,-512.429 748.448,-502.387 744.827,-512.344 751.826,-512.429"/>
<text text-anchor="middle" x="408" y="-855.8" font-family="Times,serif" font-size="14.00">caracter &#45; {&#45;}</text>
</g>
<!-- q6 -->
<g id="node16" class="node"><title>q6</title>
<ellipse fill="none" stroke="black" cx="313" cy="-892" rx="27" ry="18"/>
<text text-anchor="middle" x="313" y="-888.3" font-family="Times,serif" font-size="14.00">q6</text>
</g>
<!-- q5&#45;&gt;q6 -->
<g id="edge23" class="edge"><title>q5&#45;&gt;q6</title>
<path fill="none" stroke="black" d="M193.768,-853.699C216.908,-861.196 252.3,-872.66 278.333,-881.094"/>
<polygon fill="black" stroke="black" points="277.563,-884.523 288.155,-884.276 279.72,-877.864 277.563,-884.523"/>
<text text-anchor="middle" x="241" y="-880.8" font-family="Times,serif" font-size="14.00">&#45;</text>
</g>
<!-- q10&#45;&gt;qf -->
<g id="edge24" class="edge"><title>q10&#45;&gt;qf</title>
<path fill="none" stroke="black" d="M340.074,-762.138C418.36,-761.945 648.805,-756.741 695,-703 719.453,-674.553 736.894,-567.159 744.397,-512.454"/>
<polygon fill="black" stroke="black" points="747.905,-512.631 745.765,-502.255 740.967,-511.701 747.905,-512.631"/>
<text text-anchor="middle" x="540" y="-760.8" font-family="Times,serif" font-size="14.00">caracter &#45; {=}</text>
</g>
<!-- q12 -->
<g id="node17" class="node"><title>q12</title>
<ellipse fill="none" stroke="black" cx="540" cy="-813" rx="27" ry="18"/>
<text text-anchor="middle" x="540" y="-809.3" font-family="Times,serif" font-size="14.00">q12</text>
</g>
<!-- q10&#45;&gt;q12 -->
<g id="edge25" class="edge"><title>q10&#45;&gt;q12</title>
<path fill="none" stroke="black" d="M337.614,-770.022C344.174,-772.112 351.329,-774.262 358,-776 408.001,-789.026 466.748,-800.31 503.434,-806.886"/>
<polygon fill="black" stroke="black" points="503.166,-810.393 513.623,-808.693 504.388,-803.5 503.166,-810.393"/>
<text text-anchor="middle" x="408" y="-800.8" font-family="Times,serif" font-size="14.00">=</text>
</g>
<!-- q13&#45;&gt;qf -->
<g id="edge26" class="edge"><title>q13&#45;&gt;qf</title>
<path fill="none" stroke="black" d="M334.98,-667.784C342.108,-670.977 350.237,-674.119 358,-676 503.62,-711.275 584.194,-767.854 695,-667 738.648,-627.272 747.634,-554.622 748.942,-512.525"/>
<polygon fill="black" stroke="black" points="752.446,-512.329 749.127,-502.268 745.447,-512.203 752.446,-512.329"/>
<text text-anchor="middle" x="540" y="-727.8" font-family="Times,serif" font-size="14.00">caracter &#45; {=}</text>
</g>
<!-- q14 -->
<g id="node18" class="node"><title>q14</title>
<ellipse fill="none" stroke="black" cx="540" cy="-657" rx="27" ry="18"/>
<text text-anchor="middle" x="540" y="-653.3" font-family="Times,serif" font-size="14.00">q14</text>
</g>
<!-- q13&#45;&gt;q14 -->
<g id="edge27" class="edge"><title>q13&#45;&gt;q14</title>
<path fill="none" stroke="black" d="M340.251,-657C380.473,-657 457.455,-657 502.903,-657"/>
<polygon fill="black" stroke="black" points="502.917,-660.5 512.916,-657 502.916,-653.5 502.917,-660.5"/>
<text text-anchor="middle" x="408" y="-660.8" font-family="Times,serif" font-size="14.00">=</text>
</g>
<!-- q15&#45;&gt;qf -->
<g id="edge28" class="edge"><title>q15&#45;&gt;qf</title>
<path fill="none" stroke="black" d="M340.388,-552.131C403.05,-549.512 565.265,-539.459 695,-503 703.304,-500.666 712.014,-497.334 719.939,-493.927"/>
<polygon fill="black" stroke="black" points="721.446,-497.087 729.134,-489.798 718.578,-490.702 721.446,-497.087"/>
<text text-anchor="middle" x="540" y="-544.8" font-family="Times,serif" font-size="14.00">caracter &#45; {=}</text>
</g>
<!-- q16 -->
<g id="node19" class="node"><title>q16</title>
<ellipse fill="none" stroke="black" cx="540" cy="-603" rx="27" ry="18"/>
<text text-anchor="middle" x="540" y="-599.3" font-family="Times,serif" font-size="14.00">q16</text>
</g>
<!-- q15&#45;&gt;q16 -->
<g id="edge29" class="edge"><title>q15&#45;&gt;q16</title>
<path fill="none" stroke="black" d="M337.647,-560.391C344.207,-562.331 351.353,-564.342 358,-566 408.133,-578.506 466.847,-589.924 503.488,-596.671"/>
<polygon fill="black" stroke="black" points="503.199,-600.176 513.665,-598.53 504.456,-593.29 503.199,-600.176"/>
<text text-anchor="middle" x="408" y="-590.8" font-family="Times,serif" font-size="14.00">=</text>
</g>
<!-- q18 -->
<g id="node20" class="node"><title>q18</title>
<ellipse fill="none" stroke="black" cx="540" cy="-253" rx="27" ry="18"/>
<text text-anchor="middle" x="540" y="-249.3" font-family="Times,serif" font-size="14.00">q18</text>
</g>
<!-- q17&#45;&gt;q18 -->
<g id="edge30" class="edge"><title>q17&#45;&gt;q18</title>
<path fill="none" stroke="black" d="M340.251,-251.233C380.473,-251.591 457.455,-252.275 502.903,-252.679"/>
<polygon fill="black" stroke="black" points="502.886,-256.179 512.916,-252.768 502.948,-249.179 502.886,-256.179"/>
<text text-anchor="middle" x="408" y="-255.8" font-family="Times,serif" font-size="14.00">&amp;</text>
</g>
<!-- q20 -->
<g id="node21" class="node"><title>q20</title>
<ellipse fill="none" stroke="black" cx="408" cy="-203" rx="27" ry="18"/>
<text text-anchor="middle" x="408" y="-199.3" font-family="Times,serif" font-size="14.00">q20</text>
</g>
<!-- q19&#45;&gt;q20 -->
<g id="edge31" class="edge"><title>q19&#45;&gt;q20</title>
<path fill="none" stroke="black" d="M196.269,-217.227C238.734,-214.36 322.554,-208.701 370.697,-205.451"/>
<polygon fill="black" stroke="black" points="371.233,-208.923 380.975,-204.757 370.762,-201.939 371.233,-208.923"/>
<text text-anchor="middle" x="241" y="-218.8" font-family="Times,serif" font-size="14.00">/</text>
</g>
<!-- q21&#45;&gt;qf -->
<g id="edge32" class="edge"><title>q21&#45;&gt;qf</title>
<path fill="none" stroke="black" d="M340.379,-499.063C402.362,-499.017 562.085,-497.762 695,-487 702.298,-486.409 710.127,-485.526 717.482,-484.585"/>
<polygon fill="black" stroke="black" points="718.018,-488.045 727.461,-483.24 717.083,-481.108 718.018,-488.045"/>
<text text-anchor="middle" x="540" y="-500.8" font-family="Times,serif" font-size="14.00">caracter &#45; {=}</text>
</g>
<!-- q22 -->
<g id="node22" class="node"><title>q22</title>
<ellipse fill="none" stroke="black" cx="540" cy="-447" rx="27" ry="18"/>
<text text-anchor="middle" x="540" y="-443.3" font-family="Times,serif" font-size="14.00">q22</text>
</g>
<!-- q21&#45;&gt;q22 -->
<g id="edge33" class="edge"><title>q21&#45;&gt;q22</title>
<path fill="none" stroke="black" d="M331.553,-485.914C339.289,-480.776 348.718,-475.323 358,-472 405.977,-454.822 465.014,-449.359 502.339,-447.672"/>
<polygon fill="black" stroke="black" points="502.867,-451.154 512.726,-447.275 502.599,-444.16 502.867,-451.154"/>
<text text-anchor="middle" x="408" y="-475.8" font-family="Times,serif" font-size="14.00">=</text>
</g>
<!-- q23&#45;&gt;q23 -->
<g id="edge34" class="edge"><title>q23&#45;&gt;q23</title>
<path fill="none" stroke="black" d="M156.801,-148.29C153.859,-158.389 157.926,-168 169,-168 176.094,-168 180.313,-164.056 181.655,-158.566"/>
<polygon fill="black" stroke="black" points="185.139,-158.125 181.199,-148.29 178.146,-158.436 185.139,-158.125"/>
<text text-anchor="middle" x="169" y="-171.8" font-family="Times,serif" font-size="14.00">letra, digito</text>
</g>
<!-- q24 -->
<g id="node23" class="node"><title>q24</title>
<ellipse fill="none" stroke="black" cx="408" cy="-142" rx="27" ry="18"/>
<text text-anchor="middle" x="408" y="-138.3" font-family="Times,serif" font-size="14.00">q24</text>
</g>
<!-- q23&#45;&gt;q24 -->
<g id="edge35" class="edge"><title>q23&#45;&gt;q24</title>
<path fill="none" stroke="black" d="M196.269,-133.108C238.734,-134.9 322.554,-138.437 370.697,-140.468"/>
<polygon fill="black" stroke="black" points="370.836,-143.977 380.975,-140.902 371.131,-136.983 370.836,-143.977"/>
<text text-anchor="middle" x="241" y="-138.8" font-family="Times,serif" font-size="14.00">&quot;</text>
</g>
<!-- q25&#45;&gt;qf -->
<g id="edge36" class="edge"><title>q25&#45;&gt;qf</title>
<path fill="none" stroke="black" d="M340.056,-83.9777C345.956,-84.6472 352.193,-85.3514 358,-86 509.193,-102.888 598.06,-28.7521 695,-146 732.717,-191.618 744.208,-372.496 747.388,-447.328"/>
<polygon fill="black" stroke="black" points="743.901,-447.719 747.799,-457.571 750.895,-447.438 743.901,-447.719"/>
<text text-anchor="middle" x="540" y="-87.8" font-family="Times,serif" font-size="14.00">caracter &#45; {+}</text>
</g>
<!-- q26 -->
<g id="node24" class="node"><title>q26</title>
<ellipse fill="none" stroke="black" cx="540" cy="-46" rx="27" ry="18"/>
<text text-anchor="middle" x="540" y="-42.3" font-family="Times,serif" font-size="14.00">q26</text>
</g>
<!-- q25&#45;&gt;q26 -->
<g id="edge37" class="edge"><title>q25&#45;&gt;q26</title>
<path fill="none" stroke="black" d="M338.591,-75.0178C344.895,-73.5924 351.681,-72.1523 358,-71 407.99,-61.8844 466.288,-54.3882 502.924,-50.0538"/>
<polygon fill="black" stroke="black" points="503.585,-53.5005 513.111,-48.8641 502.773,-46.5478 503.585,-53.5005"/>
<text text-anchor="middle" x="408" y="-74.8" font-family="Times,serif" font-size="14.00">+</text>
</g>
<!-- q7 -->
<g id="node25" class="node"><title>q7</title>
<ellipse fill="none" stroke="black" cx="540" cy="-996" rx="27" ry="18"/>
<text text-anchor="middle" x="540" y="-992.3" font-family="Times,serif" font-size="14.00">q7</text>
</g>
<!-- q6&#45;&gt;q7 -->
<g id="edge38" class="edge"><title>q6&#45;&gt;q7</title>
<path fill="none" stroke="black" d="M339.47,-887.853C369.508,-884.211 420.136,-882.07 458,-901 487.989,-915.992 511.31,-947.553 525.073,-970.184"/>
<polygon fill="black" stroke="black" points="522.139,-972.1 530.21,-978.964 528.181,-968.565 522.139,-972.1"/>
<text text-anchor="middle" x="408" y="-904.8" font-family="Times,serif" font-size="14.00">/</text>
</g>
<!-- q12&#45;&gt;qf -->
<g id="edge45" class="edge"><title>q12&#45;&gt;qf</title>
<path fill="none" stroke="black" d="M566.982,-814.725C601.441,-815.476 661.768,-811.181 695,-776 730.57,-738.343 743.139,-581.289 746.995,-512.506"/>
<polygon fill="black" stroke="black" points="750.504,-512.429 747.542,-502.256 743.514,-512.056 750.504,-512.429"/>
<text text-anchor="middle" x="658.5" y="-813.8" font-family="Times,serif" font-size="14.00">caracter</text>
</g>
<!-- q14&#45;&gt;qf -->
<g id="edge46" class="edge"><title>q14&#45;&gt;qf</title>
<path fill="none" stroke="black" d="M567.217,-656.523C600.832,-654.537 659.06,-646.268 695,-614 724.512,-587.503 737.984,-542.524 743.967,-512.06"/>
<polygon fill="black" stroke="black" points="747.461,-512.406 745.785,-501.944 740.572,-511.167 747.461,-512.406"/>
<text text-anchor="middle" x="658.5" y="-651.8" font-family="Times,serif" font-size="14.00">caracter</text>
</g>
<!-- q16&#45;&gt;qf -->
<g id="edge47" class="edge"><title>q16&#45;&gt;qf</title>
<path fill="none" stroke="black" d="M567.187,-602.617C599.985,-600.905 656.535,-593.754 695,-566 714.307,-552.069 728.157,-528.817 736.921,-510.001"/>
<polygon fill="black" stroke="black" points="740.217,-511.201 741.043,-500.638 733.811,-508.38 740.217,-511.201"/>
<text text-anchor="middle" x="658.5" y="-598.8" font-family="Times,serif" font-size="14.00">caracter</text>
</g>
<!-- q18&#45;&gt;qf -->
<g id="edge48" class="edge"><title>q18&#45;&gt;qf</title>
<path fill="none" stroke="black" d="M566.659,-249.391C600.475,-246.172 659.781,-246.073 695,-278 719.968,-300.634 736.873,-396.804 744.269,-447.856"/>
<polygon fill="black" stroke="black" points="740.84,-448.609 745.702,-458.022 747.771,-447.632 740.84,-448.609"/>
<text text-anchor="middle" x="658.5" y="-281.8" font-family="Times,serif" font-size="14.00">caracter</text>
</g>
<!-- q20&#45;&gt;qf -->
<g id="edge49" class="edge"><title>q20&#45;&gt;qf</title>
<path fill="none" stroke="black" d="M433.736,-197.468C490.157,-186.48 628.597,-169.066 695,-245 721.254,-275.023 738.075,-390.646 744.952,-447.733"/>
<polygon fill="black" stroke="black" points="741.478,-448.155 746.121,-457.678 748.43,-447.338 741.478,-448.155"/>
<text text-anchor="middle" x="540" y="-197.8" font-family="Times,serif" font-size="14.00">caracter</text>
</g>
<!-- q22&#45;&gt;qf -->
<g id="edge50" class="edge"><title>q22&#45;&gt;qf</title>
<path fill="none" stroke="black" d="M566.444,-451.046C604.573,-457.11 676.437,-468.539 717.551,-475.078"/>
<polygon fill="black" stroke="black" points="717.12,-478.553 727.546,-476.668 718.22,-471.64 717.12,-478.553"/>
<text text-anchor="middle" x="658.5" y="-474.8" font-family="Times,serif" font-size="14.00">caracter</text>
</g>
<!-- q24&#45;&gt;qf -->
<g id="edge51" class="edge"><title>q24&#45;&gt;qf</title>
<path fill="none" stroke="black" d="M434.358,-137.733C490.843,-129.842 627.351,-120.008 695,-195 728.22,-231.826 741.996,-380.79 746.58,-447.463"/>
<polygon fill="black" stroke="black" points="743.111,-448.051 747.262,-457.799 750.096,-447.59 743.111,-448.051"/>
<text text-anchor="middle" x="540" y="-145.8" font-family="Times,serif" font-size="14.00">caracter</text>
</g>
<!-- q26&#45;&gt;qf -->
<g id="edge52" class="edge"><title>q26&#45;&gt;qf</title>
<path fill="none" stroke="black" d="M566.411,-41.8396C600.784,-37.8056 661.627,-36.5805 695,-71 746.802,-124.426 749.755,-360.672 749.032,-447.683"/>
<polygon fill="black" stroke="black" points="745.532,-447.732 748.926,-457.768 752.531,-447.805 745.532,-447.732"/>
<text text-anchor="middle" x="658.5" y="-74.8" font-family="Times,serif" font-size="14.00">caracter</text>
</g>
<!-- q7&#45;&gt;q7 -->
<g id="edge39" class="edge"><title>q7&#45;&gt;q7</title>
<path fill="none" stroke="black" d="M521.251,-1009.29C513.239,-1020.4 519.488,-1032 540,-1032 554.422,-1032 561.794,-1026.26 562.114,-1019"/>
<polygon fill="black" stroke="black" points="565.332,-1017.59 558.749,-1009.29 558.718,-1019.89 565.332,-1017.59"/>
<text text-anchor="middle" x="540" y="-1035.8" font-family="Times,serif" font-size="14.00">caracter &#45; {/}</text>
</g>
<!-- q8 -->
<g id="node26" class="node"><title>q8</title>
<ellipse fill="none" stroke="black" cx="749.5" cy="-978" rx="27" ry="18"/>
<text text-anchor="middle" x="749.5" y="-974.3" font-family="Times,serif" font-size="14.00">q8</text>
</g>
<!-- q7&#45;&gt;q8 -->
<g id="edge40" class="edge"><title>q7&#45;&gt;q8</title>
<path fill="none" stroke="black" d="M567.232,-995.332C597.94,-994.349 650.291,-992.052 695,-987 700.936,-986.329 707.214,-985.439 713.301,-984.478"/>
<polygon fill="black" stroke="black" points="713.978,-987.913 723.269,-982.822 712.831,-981.008 713.978,-987.913"/>
<text text-anchor="middle" x="658.5" y="-995.8" font-family="Times,serif" font-size="14.00">/</text>
</g>
<!-- q8&#45;&gt;q7 -->
<g id="edge41" class="edge"><title>q8&#45;&gt;q7</title>
<path fill="none" stroke="black" d="M723.594,-972.357C714.63,-970.588 704.409,-968.872 695,-968 662.694,-965.007 653.996,-962.626 622,-968 605.19,-970.824 587.204,-976.727 572.46,-982.389"/>
<polygon fill="black" stroke="black" points="570.819,-979.275 562.826,-986.229 573.411,-985.778 570.819,-979.275"/>
<text text-anchor="middle" x="658.5" y="-971.8" font-family="Times,serif" font-size="14.00">caracter &#45; {/}</text>
</g>
<!-- q9 -->
<g id="node27" class="node"><title>q9</title>
<ellipse fill="none" stroke="black" cx="854" cy="-978" rx="27" ry="18"/>
<text text-anchor="middle" x="854" y="-974.3" font-family="Times,serif" font-size="14.00">q9</text>
</g>
<!-- q8&#45;&gt;q9 -->
<g id="edge42" class="edge"><title>q8&#45;&gt;q9</title>
<path fill="none" stroke="black" d="M776.63,-978C788.799,-978 803.477,-978 816.7,-978"/>
<polygon fill="black" stroke="black" points="816.917,-981.5 826.917,-978 816.917,-974.5 816.917,-981.5"/>
<text text-anchor="middle" x="806.5" y="-981.8" font-family="Times,serif" font-size="14.00">&#45;</text>
</g>
<!-- q9&#45;&gt;q0 -->
<g id="edge43" class="edge"><title>q9&#45;&gt;q0</title>
<path fill="none" stroke="black" d="M853.068,-959.766C853.334,-825.882 850.906,-0 750.5,-0 168,-0 168,-0 168,-0 108.596,-3.55271e-15 98.7823,-39.9755 72,-93 45.7264,-145.017 33.3803,-321.278 29.4532,-390.632"/>
<polygon fill="black" stroke="black" points="25.948,-390.633 28.8944,-400.81 32.9375,-391.017 25.948,-390.633"/>
</g>
<!-- q9&#45;&gt;q7 -->
<g id="edge44" class="edge"><title>q9&#45;&gt;q7</title>
<path fill="none" stroke="black" d="M832.193,-988.688C819.267,-994.738 802.1,-1001.73 786,-1005 714.52,-1019.51 694.632,-1017.67 622,-1011 606.643,-1009.59 589.853,-1006.71 575.561,-1003.84"/>
<polygon fill="black" stroke="black" points="576.155,-1000.39 565.652,-1001.78 574.729,-1007.24 576.155,-1000.39"/>
<text text-anchor="middle" x="749.5" y="-1018.8" font-family="Times,serif" font-size="14.00">caracter &#45; {&#45;}</text>
</g>
</g>
</svg>
