<?xml version="1.0" encoding="UTF-8" standalone="no"?>
<!DOCTYPE svg PUBLIC "-//W3C//DTD SVG 1.1//EN"
 "http://www.w3.org/Graphics/SVG/1.1/DTD/svg11.dtd">
<!-- Generated by graphviz version 2.38.0 (20140413.2041)
 -->
<!-- Title: %3 Pages: 1 -->
<svg width="512pt" height="952pt"
 viewBox="0.00 0.00 512.00 952.00" xmlns="http://www.w3.org/2000/svg" xmlns:xlink="http://www.w3.org/1999/xlink">
<g id="graph0" class="graph" transform="scale(1 1) rotate(0) translate(4 948)">
<title>%3</title>
<polygon fill="white" stroke="none" points="-4,4 -4,-948 508,-948 508,4 -4,4"/>
<!-- q0 -->
<g id="node1" class="node"><title>q0</title>
<ellipse fill="none" stroke="black" cx="27" cy="-554" rx="27" ry="18"/>
<text text-anchor="middle" x="27" y="-550.3" font-family="Times,serif" font-size="14.00">q0</text>
</g>
<!-- q1 -->
<g id="node2" class="node"><title>q1</title>
<ellipse fill="none" stroke="black" cx="207" cy="-788" rx="27" ry="18"/>
<text text-anchor="middle" x="207" y="-784.3" font-family="Times,serif" font-size="14.00">q1</text>
</g>
<!-- q0&#45;&gt;q1 -->
<g id="edge1" class="edge"><title>q0&#45;&gt;q1</title>
<path fill="none" stroke="black" d="M30.2436,-572.123C36.7037,-621.099 57.0224,-754.211 90,-781 112.434,-799.224 146.087,-799.244 171.377,-795.726"/>
<polygon fill="black" stroke="black" points="171.995,-799.172 181.302,-794.109 170.869,-792.263 171.995,-799.172"/>
</g>
<!-- q2 -->
<g id="node3" class="node"><title>q2</title>
<ellipse fill="none" stroke="black" cx="117" cy="-736" rx="27" ry="18"/>
<text text-anchor="middle" x="117" y="-732.3" font-family="Times,serif" font-size="14.00">q2</text>
</g>
<!-- q0&#45;&gt;q2 -->
<g id="edge2" class="edge"><title>q0&#45;&gt;q2</title>
<path fill="none" stroke="black" d="M32.6753,-571.789C41.0655,-601.753 60.5928,-663.474 90,-709 91.0858,-710.681 92.2858,-712.348 93.557,-713.979"/>
<polygon fill="black" stroke="black" points="91.106,-716.495 100.307,-721.748 96.3904,-711.904 91.106,-716.495"/>
</g>
<!-- q3 -->
<g id="node4" class="node"><title>q3</title>
<ellipse fill="none" stroke="black" cx="207" cy="-624" rx="27" ry="18"/>
<text text-anchor="middle" x="207" y="-620.3" font-family="Times,serif" font-size="14.00">q3</text>
</g>
<!-- q0&#45;&gt;q3 -->
<g id="edge3" class="edge"><title>q0&#45;&gt;q3</title>
<path fill="none" stroke="black" d="M43.6754,-568.241C55.5656,-578.295 72.7555,-591.298 90,-599 115.562,-610.417 146.671,-616.757 170.237,-620.194"/>
<polygon fill="black" stroke="black" points="169.782,-623.664 180.16,-621.536 170.72,-616.727 169.782,-623.664"/>
</g>
<!-- q4 -->
<g id="node5" class="node"><title>q4</title>
<ellipse fill="none" stroke="black" cx="117" cy="-554" rx="27" ry="18"/>
<text text-anchor="middle" x="117" y="-550.3" font-family="Times,serif" font-size="14.00">q4</text>
</g>
<!-- q0&#45;&gt;q4 -->
<g id="edge4" class="edge"><title>q0&#45;&gt;q4</title>
<path fill="none" stroke="black" d="M54.4029,-554C62.3932,-554 71.3106,-554 79.8241,-554"/>
<polygon fill="black" stroke="black" points="79.919,-557.5 89.919,-554 79.919,-550.5 79.919,-557.5"/>
</g>
<!-- q5 -->
<g id="node6" class="node"><title>q5</title>
<ellipse fill="none" stroke="black" cx="117" cy="-846" rx="27" ry="18"/>
<text text-anchor="middle" x="117" y="-842.3" font-family="Times,serif" font-size="14.00">q5</text>
</g>
<!-- q0&#45;&gt;q5 -->
<g id="edge5" class="edge"><title>q0&#45;&gt;q5</title>
<path fill="none" stroke="black" d="M29.514,-571.954C33.761,-615.53 48.3313,-729.516 90,-814 91.4882,-817.017 93.3063,-820.005 95.283,-822.873"/>
<polygon fill="black" stroke="black" points="92.6624,-825.208 101.518,-831.025 98.2226,-820.955 92.6624,-825.208"/>
</g>
<!-- q9 -->
<g id="node7" class="node"><title>q9</title>
<ellipse fill="none" stroke="black" cx="477" cy="-911" rx="27" ry="18"/>
<text text-anchor="middle" x="477" y="-907.3" font-family="Times,serif" font-size="14.00">q9</text>
</g>
<!-- q0&#45;&gt;q9 -->
<g id="edge6" class="edge"><title>q0&#45;&gt;q9</title>
<path fill="none" stroke="black" d="M29.8371,-572.125C35.5436,-631.336 54.7314,-816.228 90,-864 124.721,-911.029 147.542,-926 206,-926 206,-926 206,-926 298,-926 347.525,-926 404.111,-916.763 439.934,-911.898"/>
<polygon fill="black" stroke="black" points="440.445,-915.362 449.909,-910.599 439.541,-908.42 440.445,-915.362"/>
</g>
<!-- q10 -->
<g id="node8" class="node"><title>q10</title>
<ellipse fill="none" stroke="black" cx="117" cy="-356" rx="27" ry="18"/>
<text text-anchor="middle" x="117" y="-352.3" font-family="Times,serif" font-size="14.00">q10</text>
</g>
<!-- q0&#45;&gt;q10 -->
<g id="edge7" class="edge"><title>q0&#45;&gt;q10</title>
<path fill="none" stroke="black" d="M35.5596,-536.601C47.1617,-509.945 70.1055,-457.417 90,-413 94.5017,-402.949 99.5095,-391.933 103.919,-382.286"/>
<polygon fill="black" stroke="black" points="107.106,-383.732 108.088,-373.183 100.742,-380.818 107.106,-383.732"/>
</g>
<!-- q13 -->
<g id="node9" class="node"><title>q13</title>
<ellipse fill="none" stroke="black" cx="117" cy="-264" rx="27" ry="18"/>
<text text-anchor="middle" x="117" y="-260.3" font-family="Times,serif" font-size="14.00">q13</text>
</g>
<!-- q0&#45;&gt;q13 -->
<g id="edge8" class="edge"><title>q0&#45;&gt;q13</title>
<path fill="none" stroke="black" d="M32.1642,-536.294C41.3141,-498.049 64.4062,-405.034 90,-329 94.2884,-316.26 99.7244,-302.395 104.516,-290.756"/>
<polygon fill="black" stroke="black" points="107.889,-291.761 108.516,-281.185 101.43,-289.062 107.889,-291.761"/>
</g>
<!-- q15 -->
<g id="node10" class="node"><title>q15</title>
<ellipse fill="none" stroke="black" cx="117" cy="-172" rx="27" ry="18"/>
<text text-anchor="middle" x="117" y="-168.3" font-family="Times,serif" font-size="14.00">q15</text>
</g>
<!-- q0&#45;&gt;q15 -->
<g id="edge9" class="edge"><title>q0&#45;&gt;q15</title>
<path fill="none" stroke="black" d="M30.3354,-535.842C36.8913,-486.884 57.1598,-348.338 90,-237 93.8414,-223.976 99.2817,-209.941 104.194,-198.257"/>
<polygon fill="black" stroke="black" points="107.409,-199.638 108.149,-189.069 100.98,-196.87 107.409,-199.638"/>
</g>
<!-- q17 -->
<g id="node11" class="node"><title>q17</title>
<ellipse fill="none" stroke="black" cx="117" cy="-95" rx="27" ry="18"/>
<text text-anchor="middle" x="117" y="-91.3" font-family="Times,serif" font-size="14.00">q17</text>
</g>
<!-- q0&#45;&gt;q17 -->
<g id="edge10" class="edge"><title>q0&#45;&gt;q17</title>
<path fill="none" stroke="black" d="M28.6314,-535.98C31.105,-477.878 42.498,-290.788 90,-145 92.7152,-136.667 96.7137,-128.043 100.765,-120.353"/>
<polygon fill="black" stroke="black" points="103.874,-121.963 105.65,-111.518 97.7482,-118.576 103.874,-121.963"/>
</g>
<!-- q19 -->
<g id="node12" class="node"><title>q19</title>
<ellipse fill="none" stroke="black" cx="117" cy="-30" rx="27" ry="18"/>
<text text-anchor="middle" x="117" y="-26.3" font-family="Times,serif" font-size="14.00">q19</text>
</g>
<!-- q0&#45;&gt;q19 -->
<g id="edge11" class="edge"><title>q0&#45;&gt;q19</title>
<path fill="none" stroke="black" d="M29.1616,-536.015C34.3107,-458.954 56.3202,-156.545 90,-68 91.7886,-63.2977 94.2693,-58.6107 96.9936,-54.2157"/>
<polygon fill="black" stroke="black" points="100.059,-55.9316 102.784,-45.6932 94.2691,-51.9976 100.059,-55.9316"/>
</g>
<!-- q21 -->
<g id="node13" class="node"><title>q21</title>
<ellipse fill="none" stroke="black" cx="117" cy="-440" rx="27" ry="18"/>
<text text-anchor="middle" x="117" y="-436.3" font-family="Times,serif" font-size="14.00">q21</text>
</g>
<!-- q0&#45;&gt;q21 -->
<g id="edge12" class="edge"><title>q0&#45;&gt;q21</title>
<path fill="none" stroke="black" d="M40.0525,-538.118C52.4982,-521.751 72.5121,-495.519 90,-473 92.3291,-470.001 94.7862,-466.857 97.2229,-463.751"/>
<polygon fill="black" stroke="black" points="100.09,-465.766 103.523,-455.743 94.5891,-461.438 100.09,-465.766"/>
</g>
<!-- q23 -->
<g id="node14" class="node"><title>q23</title>
<ellipse fill="none" stroke="black" cx="117" cy="-664" rx="27" ry="18"/>
<text text-anchor="middle" x="117" y="-660.3" font-family="Times,serif" font-size="14.00">q23</text>
</g>
<!-- q0&#45;&gt;q23 -->
<g id="edge13" class="edge"><title>q0&#45;&gt;q23</title>
<path fill="none" stroke="black" d="M40.5375,-569.875C53.0262,-585.664 72.7704,-610.561 90,-632 92.2196,-634.762 94.5529,-637.652 96.873,-640.518"/>
<polygon fill="black" stroke="black" points="94.2521,-642.843 103.271,-648.402 99.6876,-638.432 94.2521,-642.843"/>
</g>
<!-- q25 -->
<g id="node15" class="node"><title>q25</title>
<ellipse fill="none" stroke="black" cx="117" cy="-500" rx="27" ry="18"/>
<text text-anchor="middle" x="117" y="-496.3" font-family="Times,serif" font-size="14.00">q25</text>
</g>
<!-- q0&#45;&gt;q25 -->
<g id="edge14" class="edge"><title>q0&#45;&gt;q25</title>
<path fill="none" stroke="black" d="M47.5301,-542.016C59.3788,-534.745 74.6989,-525.344 87.8424,-517.279"/>
<polygon fill="black" stroke="black" points="89.8319,-520.164 96.5245,-511.951 86.1707,-514.198 89.8319,-520.164"/>
</g>
<!-- qf -->
<g id="node16" class="node"><title>qf</title>
<ellipse fill="none" stroke="black" cx="297" cy="-417" rx="27" ry="18"/>
<text text-anchor="middle" x="297" y="-413.3" font-family="Times,serif" font-size="14.00">qf</text>
</g>
<!-- q1&#45;&gt;qf -->
<g id="edge15" class="edge"><title>q1&#45;&gt;qf</title>
<path fill="none" stroke="black" d="M222.676,-773.117C226.932,-768.049 231.185,-762.112 234,-756 283.363,-648.821 293.465,-505.579 295.502,-445.454"/>
<polygon fill="black" stroke="black" points="299.008,-445.319 295.796,-435.222 292.01,-445.117 299.008,-445.319"/>
</g>
<!-- q2&#45;&gt;q2 -->
<g id="edge16" class="edge"><title>q2&#45;&gt;q2</title>
<path fill="none" stroke="black" d="M101.773,-751.167C97.1587,-761.664 102.234,-772 117,-772 126.921,-772 132.467,-767.334 133.639,-761.088"/>
<polygon fill="black" stroke="black" points="137.101,-760.574 132.227,-751.167 130.171,-761.56 137.101,-760.574"/>
</g>
<!-- q2&#45;&gt;qf -->
<g id="edge17" class="edge"><title>q2&#45;&gt;qf</title>
<path fill="none" stroke="black" d="M143.157,-740.93C169.269,-744.475 209.635,-745.303 234,-723 274.799,-685.654 289.951,-513.383 294.418,-445.044"/>
<polygon fill="black" stroke="black" points="297.915,-445.204 295.046,-435.005 290.929,-444.767 297.915,-445.204"/>
</g>
<!-- q3&#45;&gt;q3 -->
<g id="edge18" class="edge"><title>q3&#45;&gt;q3</title>
<path fill="none" stroke="black" d="M191.773,-639.167C187.159,-649.664 192.234,-660 207,-660 216.921,-660 222.467,-655.334 223.639,-649.088"/>
<polygon fill="black" stroke="black" points="227.101,-648.574 222.227,-639.167 220.171,-649.56 227.101,-648.574"/>
</g>
<!-- q3&#45;&gt;qf -->
<g id="edge19" class="edge"><title>q3&#45;&gt;qf</title>
<path fill="none" stroke="black" d="M222.102,-608.824C226.327,-603.741 230.707,-597.868 234,-592 261.305,-543.346 280.03,-480.481 289.295,-444.866"/>
<polygon fill="black" stroke="black" points="292.799,-445.287 291.866,-434.733 286.014,-443.566 292.799,-445.287"/>
</g>
<!-- q4&#45;&gt;q3 -->
<g id="edge21" class="edge"><title>q4&#45;&gt;q3</title>
<path fill="none" stroke="black" d="M134.967,-567.497C147.91,-577.792 165.948,-592.14 180.608,-603.801"/>
<polygon fill="black" stroke="black" points="178.78,-606.82 188.785,-610.306 183.137,-601.342 178.78,-606.82"/>
</g>
<!-- q4&#45;&gt;q4 -->
<g id="edge20" class="edge"><title>q4&#45;&gt;q4</title>
<path fill="none" stroke="black" d="M101.773,-569.167C97.1587,-579.664 102.234,-590 117,-590 126.921,-590 132.467,-585.334 133.639,-579.088"/>
<polygon fill="black" stroke="black" points="137.101,-578.574 132.227,-569.167 130.171,-579.56 137.101,-578.574"/>
</g>
<!-- q4&#45;&gt;qf -->
<g id="edge22" class="edge"><title>q4&#45;&gt;qf</title>
<path fill="none" stroke="black" d="M143.988,-556.907C169.276,-558.348 207.639,-556.707 234,-538 265.374,-515.736 281.929,-472.776 289.818,-444.496"/>
<polygon fill="black" stroke="black" points="293.208,-445.367 292.344,-434.807 286.435,-443.601 293.208,-445.367"/>
</g>
<!-- q5&#45;&gt;qf -->
<g id="edge23" class="edge"><title>q5&#45;&gt;qf</title>
<path fill="none" stroke="black" d="M144.304,-846.69C170.971,-845.859 211.427,-840.117 234,-815 283.209,-760.245 293.412,-526.34 295.484,-445.006"/>
<polygon fill="black" stroke="black" points="298.983,-445.083 295.717,-435.004 291.985,-444.92 298.983,-445.083"/>
</g>
<!-- q6 -->
<g id="node17" class="node"><title>q6</title>
<ellipse fill="none" stroke="black" cx="207" cy="-880" rx="27" ry="18"/>
<text text-anchor="middle" x="207" y="-876.3" font-family="Times,serif" font-size="14.00">q6</text>
</g>
<!-- q5&#45;&gt;q6 -->
<g id="edge24" class="edge"><title>q5&#45;&gt;q6</title>
<path fill="none" stroke="black" d="M140.662,-854.756C150.644,-858.612 162.558,-863.216 173.463,-867.429"/>
<polygon fill="black" stroke="black" points="172.519,-870.816 183.109,-871.156 175.042,-864.287 172.519,-870.816"/>
</g>
<!-- q9&#45;&gt;q0 -->
<g id="edge31" class="edge"><title>q9&#45;&gt;q0</title>
<path fill="none" stroke="black" d="M454.753,-921.454C421.502,-931.736 355.064,-944 298,-944 206,-944 206,-944 206,-944 147.542,-944 124.721,-929.029 90,-882 55.0989,-834.726 35.9452,-653.174 30.0199,-582.319"/>
<polygon fill="black" stroke="black" points="33.5057,-582.001 29.2116,-572.316 26.5284,-582.565 33.5057,-582.001"/>
</g>
<!-- q7 -->
<g id="node18" class="node"><title>q7</title>
<ellipse fill="none" stroke="black" cx="297" cy="-852" rx="27" ry="18"/>
<text text-anchor="middle" x="297" y="-848.3" font-family="Times,serif" font-size="14.00">q7</text>
</g>
<!-- q9&#45;&gt;q7 -->
<g id="edge30" class="edge"><title>q9&#45;&gt;q7</title>
<path fill="none" stroke="black" d="M452.549,-903.227C421.571,-892.959 366.818,-874.81 331.49,-863.1"/>
<polygon fill="black" stroke="black" points="332.23,-859.659 321.637,-859.835 330.028,-866.303 332.23,-859.659"/>
</g>
<!-- q10&#45;&gt;qf -->
<g id="edge32" class="edge"><title>q10&#45;&gt;qf</title>
<path fill="none" stroke="black" d="M141.27,-363.975C172.319,-374.615 227.482,-393.519 262.866,-405.645"/>
<polygon fill="black" stroke="black" points="262.129,-409.092 272.724,-409.023 264.399,-402.47 262.129,-409.092"/>
</g>
<!-- q12 -->
<g id="node20" class="node"><title>q12</title>
<ellipse fill="none" stroke="black" cx="207" cy="-310" rx="27" ry="18"/>
<text text-anchor="middle" x="207" y="-306.3" font-family="Times,serif" font-size="14.00">q12</text>
</g>
<!-- q10&#45;&gt;q12 -->
<g id="edge33" class="edge"><title>q10&#45;&gt;q12</title>
<path fill="none" stroke="black" d="M138.855,-345.099C150.033,-339.255 163.998,-331.956 176.293,-325.529"/>
<polygon fill="black" stroke="black" points="178.054,-328.557 185.295,-320.823 174.811,-322.354 178.054,-328.557"/>
</g>
<!-- q13&#45;&gt;qf -->
<g id="edge35" class="edge"><title>q13&#45;&gt;qf</title>
<path fill="none" stroke="black" d="M144.215,-261.66C169.676,-260.792 208.167,-263.366 234,-283 267.955,-308.807 283.963,-357.672 291.009,-388.721"/>
<polygon fill="black" stroke="black" points="287.664,-389.825 293.143,-398.894 294.515,-388.388 287.664,-389.825"/>
</g>
<!-- q14 -->
<g id="node21" class="node"><title>q14</title>
<ellipse fill="none" stroke="black" cx="207" cy="-218" rx="27" ry="18"/>
<text text-anchor="middle" x="207" y="-214.3" font-family="Times,serif" font-size="14.00">q14</text>
</g>
<!-- q13&#45;&gt;q14 -->
<g id="edge36" class="edge"><title>q13&#45;&gt;q14</title>
<path fill="none" stroke="black" d="M138.855,-253.099C150.033,-247.255 163.998,-239.956 176.293,-233.529"/>
<polygon fill="black" stroke="black" points="178.054,-236.557 185.295,-228.823 174.811,-230.354 178.054,-236.557"/>
</g>
<!-- q15&#45;&gt;qf -->
<g id="edge38" class="edge"><title>q15&#45;&gt;qf</title>
<path fill="none" stroke="black" d="M143.977,-168.828C169.992,-167.174 209.576,-169.024 234,-191 263.489,-217.534 284.026,-334.774 292.14,-389.139"/>
<polygon fill="black" stroke="black" points="288.69,-389.738 293.596,-399.129 295.617,-388.728 288.69,-389.738"/>
</g>
<!-- q16 -->
<g id="node22" class="node"><title>q16</title>
<ellipse fill="none" stroke="black" cx="207" cy="-126" rx="27" ry="18"/>
<text text-anchor="middle" x="207" y="-122.3" font-family="Times,serif" font-size="14.00">q16</text>
</g>
<!-- q15&#45;&gt;q16 -->
<g id="edge39" class="edge"><title>q15&#45;&gt;q16</title>
<path fill="none" stroke="black" d="M138.855,-161.099C150.033,-155.255 163.998,-147.956 176.293,-141.529"/>
<polygon fill="black" stroke="black" points="178.054,-144.557 185.295,-136.823 174.811,-138.354 178.054,-144.557"/>
</g>
<!-- q18 -->
<g id="node23" class="node"><title>q18</title>
<ellipse fill="none" stroke="black" cx="207" cy="-72" rx="27" ry="18"/>
<text text-anchor="middle" x="207" y="-68.3" font-family="Times,serif" font-size="14.00">q18</text>
</g>
<!-- q17&#45;&gt;q18 -->
<g id="edge41" class="edge"><title>q17&#45;&gt;q18</title>
<path fill="none" stroke="black" d="M142.513,-88.5932C151.572,-86.2256 162.012,-83.497 171.775,-80.9452"/>
<polygon fill="black" stroke="black" points="172.829,-84.2874 181.619,-78.3724 171.058,-77.5149 172.829,-84.2874"/>
</g>
<!-- q20 -->
<g id="node24" class="node"><title>q20</title>
<ellipse fill="none" stroke="black" cx="207" cy="-18" rx="27" ry="18"/>
<text text-anchor="middle" x="207" y="-14.3" font-family="Times,serif" font-size="14.00">q20</text>
</g>
<!-- q19&#45;&gt;q20 -->
<g id="edge43" class="edge"><title>q19&#45;&gt;q20</title>
<path fill="none" stroke="black" d="M143.927,-26.4645C152.162,-25.3415 161.42,-24.0791 170.223,-22.8787"/>
<polygon fill="black" stroke="black" points="170.823,-26.3293 180.258,-21.5102 169.877,-19.3935 170.823,-26.3293"/>
</g>
<!-- q21&#45;&gt;qf -->
<g id="edge45" class="edge"><title>q21&#45;&gt;qf</title>
<path fill="none" stroke="black" d="M138.244,-428.658C150.03,-422.709 165.403,-416.04 180,-413 206.516,-407.477 237.167,-408.856 260.3,-411.413"/>
<polygon fill="black" stroke="black" points="260.006,-414.903 270.358,-412.649 260.86,-407.955 260.006,-414.903"/>
</g>
<!-- q22 -->
<g id="node25" class="node"><title>q22</title>
<ellipse fill="none" stroke="black" cx="207" cy="-440" rx="27" ry="18"/>
<text text-anchor="middle" x="207" y="-436.3" font-family="Times,serif" font-size="14.00">q22</text>
</g>
<!-- q21&#45;&gt;q22 -->
<g id="edge46" class="edge"><title>q21&#45;&gt;q22</title>
<path fill="none" stroke="black" d="M144.403,-440C152.393,-440 161.311,-440 169.824,-440"/>
<polygon fill="black" stroke="black" points="169.919,-443.5 179.919,-440 169.919,-436.5 169.919,-443.5"/>
</g>
<!-- q23&#45;&gt;q23 -->
<g id="edge48" class="edge"><title>q23&#45;&gt;q23</title>
<path fill="none" stroke="black" d="M101.773,-679.167C97.1587,-689.664 102.234,-700 117,-700 126.921,-700 132.467,-695.334 133.639,-689.088"/>
<polygon fill="black" stroke="black" points="137.101,-688.574 132.227,-679.167 130.171,-689.56 137.101,-688.574"/>
</g>
<!-- q24 -->
<g id="node26" class="node"><title>q24</title>
<ellipse fill="none" stroke="black" cx="207" cy="-696" rx="27" ry="18"/>
<text text-anchor="middle" x="207" y="-692.3" font-family="Times,serif" font-size="14.00">q24</text>
</g>
<!-- q23&#45;&gt;q24 -->
<g id="edge49" class="edge"><title>q23&#45;&gt;q24</title>
<path fill="none" stroke="black" d="M141.121,-672.408C151.024,-676.009 162.764,-680.278 173.517,-684.188"/>
<polygon fill="black" stroke="black" points="172.439,-687.52 183.033,-687.649 174.832,-680.942 172.439,-687.52"/>
</g>
<!-- q25&#45;&gt;qf -->
<g id="edge51" class="edge"><title>q25&#45;&gt;qf</title>
<path fill="none" stroke="black" d="M138.235,-511.336C162.521,-523.286 203.748,-538.185 234,-521 262.594,-504.757 279.394,-469.527 288.137,-444.582"/>
<polygon fill="black" stroke="black" points="291.51,-445.527 291.301,-434.934 284.859,-443.345 291.51,-445.527"/>
</g>
<!-- q26 -->
<g id="node27" class="node"><title>q26</title>
<ellipse fill="none" stroke="black" cx="207" cy="-494" rx="27" ry="18"/>
<text text-anchor="middle" x="207" y="-490.3" font-family="Times,serif" font-size="14.00">q26</text>
</g>
<!-- q25&#45;&gt;q26 -->
<g id="edge52" class="edge"><title>q25&#45;&gt;q26</title>
<path fill="none" stroke="black" d="M143.927,-498.232C152.001,-497.682 161.057,-497.064 169.704,-496.475"/>
<polygon fill="black" stroke="black" points="170.216,-499.948 179.954,-495.776 169.739,-492.964 170.216,-499.948"/>
</g>
<!-- q6&#45;&gt;q7 -->
<g id="edge25" class="edge"><title>q6&#45;&gt;q7</title>
<path fill="none" stroke="black" d="M231.582,-872.497C241.151,-869.452 252.374,-865.881 262.748,-862.58"/>
<polygon fill="black" stroke="black" points="263.884,-865.892 272.353,-859.524 261.762,-859.221 263.884,-865.892"/>
</g>
<!-- q7&#45;&gt;q7 -->
<g id="edge26" class="edge"><title>q7&#45;&gt;q7</title>
<path fill="none" stroke="black" d="M281.773,-867.167C277.159,-877.664 282.234,-888 297,-888 306.921,-888 312.467,-883.334 313.639,-877.088"/>
<polygon fill="black" stroke="black" points="317.101,-876.574 312.227,-867.167 310.171,-877.56 317.101,-876.574"/>
</g>
<!-- q8 -->
<g id="node19" class="node"><title>q8</title>
<ellipse fill="none" stroke="black" cx="387" cy="-842" rx="27" ry="18"/>
<text text-anchor="middle" x="387" y="-838.3" font-family="Times,serif" font-size="14.00">q8</text>
</g>
<!-- q7&#45;&gt;q8 -->
<g id="edge27" class="edge"><title>q7&#45;&gt;q8</title>
<path fill="none" stroke="black" d="M321.121,-843.349C329.947,-841.683 340.231,-840.305 349.976,-839.443"/>
<polygon fill="black" stroke="black" points="350.514,-842.914 360.244,-838.722 350.023,-835.931 350.514,-842.914"/>
</g>
<!-- q8&#45;&gt;q9 -->
<g id="edge28" class="edge"><title>q8&#45;&gt;q9</title>
<path fill="none" stroke="black" d="M405.386,-855.632C418.282,-865.744 436.065,-879.687 450.559,-891.052"/>
<polygon fill="black" stroke="black" points="448.621,-893.98 458.65,-897.396 452.94,-888.471 448.621,-893.98"/>
</g>
<!-- q8&#45;&gt;q7 -->
<g id="edge29" class="edge"><title>q8&#45;&gt;q7</title>
<path fill="none" stroke="black" d="M363.245,-850.581C354.317,-852.283 343.853,-853.69 333.953,-854.563"/>
<polygon fill="black" stroke="black" points="333.656,-851.075 323.927,-855.27 334.148,-858.058 333.656,-851.075"/>
</g>
<!-- q12&#45;&gt;qf -->
<g id="edge34" class="edge"><title>q12&#45;&gt;qf</title>
<path fill="none" stroke="black" d="M220.985,-325.788C235.692,-343.671 259.805,-372.991 276.713,-393.549"/>
<polygon fill="black" stroke="black" points="274.193,-395.995 283.248,-401.495 279.599,-391.548 274.193,-395.995"/>
</g>
<!-- q14&#45;&gt;qf -->
<g id="edge37" class="edge"><title>q14&#45;&gt;qf</title>
<path fill="none" stroke="black" d="M222.049,-233.206C226.271,-238.291 230.663,-244.157 234,-250 260.27,-295.999 279.142,-355.203 288.755,-389.35"/>
<polygon fill="black" stroke="black" points="285.411,-390.388 291.439,-399.101 292.16,-388.53 285.411,-390.388"/>
</g>
<!-- q16&#45;&gt;qf -->
<g id="edge40" class="edge"><title>q16&#45;&gt;qf</title>
<path fill="none" stroke="black" d="M222.479,-140.977C226.724,-146.05 231.021,-151.967 234,-158 272.537,-236.049 287.924,-339.373 293.369,-388.589"/>
<polygon fill="black" stroke="black" points="289.915,-389.212 294.439,-398.792 296.877,-388.482 289.915,-389.212"/>
</g>
<!-- q18&#45;&gt;qf -->
<g id="edge42" class="edge"><title>q18&#45;&gt;qf</title>
<path fill="none" stroke="black" d="M224.294,-85.9027C227.986,-89.7941 231.538,-94.2657 234,-99 284.832,-196.749 294.174,-331.084 295.758,-388.793"/>
<polygon fill="black" stroke="black" points="292.263,-389.043 295.977,-398.965 299.261,-388.892 292.263,-389.043"/>
</g>
<!-- q20&#45;&gt;qf -->
<g id="edge44" class="edge"><title>q20&#45;&gt;qf</title>
<path fill="none" stroke="black" d="M224.384,-31.8566C228.074,-35.7489 231.603,-40.2324 234,-45 292.938,-162.233 297.594,-323.891 296.837,-388.575"/>
<polygon fill="black" stroke="black" points="293.333,-388.741 296.66,-398.8 300.332,-388.862 293.333,-388.741"/>
</g>
<!-- q22&#45;&gt;qf -->
<g id="edge47" class="edge"><title>q22&#45;&gt;qf</title>
<path fill="none" stroke="black" d="M232.513,-433.593C241.572,-431.226 252.012,-428.497 261.775,-425.945"/>
<polygon fill="black" stroke="black" points="262.829,-429.287 271.619,-423.372 261.058,-422.515 262.829,-429.287"/>
</g>
<!-- q24&#45;&gt;qf -->
<g id="edge50" class="edge"><title>q24&#45;&gt;qf</title>
<path fill="none" stroke="black" d="M224.135,-682.012C227.83,-678.122 231.424,-673.673 234,-669 274.954,-594.721 289.203,-493.407 293.877,-444.992"/>
<polygon fill="black" stroke="black" points="297.37,-445.223 294.78,-434.949 290.398,-444.596 297.37,-445.223"/>
</g>
<!-- q26&#45;&gt;qf -->
<g id="edge53" class="edge"><title>q26&#45;&gt;qf</title>
<path fill="none" stroke="black" d="M224.141,-479.877C237.662,-468.046 257.145,-450.998 272.415,-437.637"/>
<polygon fill="black" stroke="black" points="274.741,-440.253 279.962,-431.033 270.131,-434.985 274.741,-440.253"/>
</g>
</g>
</svg>
