<?xml version="1.0" encoding="UTF-8" standalone="no"?>
<!DOCTYPE svg PUBLIC "-//W3C//DTD SVG 1.1//EN"
 "http://www.w3.org/Graphics/SVG/1.1/DTD/svg11.dtd">
<!-- Generated by graphviz version 2.38.0 (20140413.2041)
 -->
<!-- Title: %3 Pages: 1 -->
<svg width="845pt" height="1423pt"
 viewBox="0.00 0.00 845.00 1423.00" xmlns="http://www.w3.org/2000/svg" xmlns:xlink="http://www.w3.org/1999/xlink">
<g id="graph0" class="graph" transform="scale(1 1) rotate(0) translate(4 1419)">
<title>%3</title>
<polygon fill="white" stroke="none" points="-4,4 -4,-1419 841,-1419 841,4 -4,4"/>
<!-- fin -->
<g id="node1" class="node"><title>fin</title>
<ellipse fill="#fcfca9" stroke="black" cx="521" cy="-622" rx="20.6302" ry="20.6302"/>
<ellipse fill="none" stroke="black" cx="521" cy="-622" rx="24.5979" ry="24.5979"/>
<text text-anchor="middle" x="521" y="-618.3" font-family="Times,serif" font-size="14.00">fin</text>
</g>
<!-- 0 -->
<g id="node2" class="node"><title>0</title>
<ellipse fill="#fcfca9" stroke="black" cx="122" cy="-639" rx="27" ry="18"/>
<text text-anchor="middle" x="122" y="-635.3" font-family="Times,serif" font-size="14.00">0</text>
</g>
<!-- 0&#45;&gt;0 -->
<g id="edge1" class="edge"><title>0&#45;&gt;0</title>
<path fill="none" stroke="black" d="M113.788,-656.41C112.255,-666.088 114.992,-675 122,-675 126.38,-675 129.092,-671.519 130.135,-666.545"/>
<polygon fill="black" stroke="black" points="133.636,-666.436 130.212,-656.41 126.636,-666.383 133.636,-666.436"/>
<text text-anchor="middle" x="122" y="-678.8" font-family="Times,serif" font-size="14.00">tab, espacio, enter</text>
</g>
<!-- 3 -->
<g id="node3" class="node"><title>3</title>
<ellipse fill="#fcfca9" stroke="black" cx="244" cy="-1198" rx="27" ry="18"/>
<text text-anchor="middle" x="244" y="-1194.3" font-family="Times,serif" font-size="14.00">3</text>
</g>
<!-- 0&#45;&gt;3 -->
<g id="edge2" class="edge"><title>0&#45;&gt;3</title>
<path fill="none" stroke="black" d="M124.055,-657.237C129.296,-746.804 152.853,-1136.66 167,-1158 176.665,-1172.58 193.43,-1182.19 208.759,-1188.34"/>
<polygon fill="black" stroke="black" points="207.942,-1191.76 218.536,-1191.89 210.331,-1185.18 207.942,-1191.76"/>
<text text-anchor="middle" x="183" y="-1186.8" font-family="Times,serif" font-size="14.00">+</text>
</g>
<!-- 15 -->
<g id="node4" class="node"><title>15</title>
<ellipse fill="#fcfca9" stroke="black" cx="244" cy="-1329" rx="27" ry="18"/>
<text text-anchor="middle" x="244" y="-1325.3" font-family="Times,serif" font-size="14.00">15</text>
</g>
<!-- 0&#45;&gt;15 -->
<g id="edge3" class="edge"><title>0&#45;&gt;15</title>
<path fill="none" stroke="black" d="M124.179,-657.083C130.304,-750.531 158.522,-1175.41 167,-1202 179.443,-1241.03 205.862,-1280.7 224.024,-1305.08"/>
<polygon fill="black" stroke="black" points="221.464,-1307.49 230.301,-1313.34 227.037,-1303.26 221.464,-1307.49"/>
<text text-anchor="middle" x="183" y="-1270.8" font-family="Times,serif" font-size="14.00">&#45;</text>
</g>
<!-- 16 -->
<g id="node5" class="node"><title>16</title>
<ellipse fill="#fcfca9" stroke="black" cx="316" cy="-1093" rx="27" ry="18"/>
<text text-anchor="middle" x="316" y="-1089.3" font-family="Times,serif" font-size="14.00">16</text>
</g>
<!-- 0&#45;&gt;16 -->
<g id="edge4" class="edge"><title>0&#45;&gt;16</title>
<path fill="none" stroke="black" d="M123.624,-657.103C126.45,-734.308 139.139,-1033.5 167,-1064 195.007,-1094.66 245.113,-1098.46 279.189,-1096.92"/>
<polygon fill="black" stroke="black" points="279.446,-1100.41 289.208,-1096.29 279.008,-1093.42 279.446,-1100.41"/>
<text text-anchor="middle" x="183" y="-1088.8" font-family="Times,serif" font-size="14.00">*</text>
</g>
<!-- 17 -->
<g id="node6" class="node"><title>17</title>
<ellipse fill="#fcfca9" stroke="black" cx="388" cy="-1039" rx="27" ry="18"/>
<text text-anchor="middle" x="388" y="-1035.3" font-family="Times,serif" font-size="14.00">17</text>
</g>
<!-- 0&#45;&gt;17 -->
<g id="edge5" class="edge"><title>0&#45;&gt;17</title>
<path fill="none" stroke="black" d="M124.374,-657.12C128.713,-711.292 143.257,-871.103 167,-917 201.803,-984.276 219.287,-1006.38 289,-1036 308.431,-1044.26 332.038,-1045.22 351.213,-1044.01"/>
<polygon fill="black" stroke="black" points="351.686,-1047.48 361.355,-1043.15 351.095,-1040.51 351.686,-1047.48"/>
<text text-anchor="middle" x="244" y="-1031.8" font-family="Times,serif" font-size="14.00">/</text>
</g>
<!-- 1 -->
<g id="node7" class="node"><title>1</title>
<ellipse fill="#fcfca9" stroke="black" cx="316" cy="-984" rx="27" ry="18"/>
<text text-anchor="middle" x="316" y="-980.3" font-family="Times,serif" font-size="14.00">1</text>
</g>
<!-- 0&#45;&gt;1 -->
<g id="edge6" class="edge"><title>0&#45;&gt;1</title>
<path fill="none" stroke="black" d="M122.712,-657.235C122.885,-696.822 127.685,-792.424 167,-859 196.043,-908.181 251.683,-947.12 285.852,-967.762"/>
<polygon fill="black" stroke="black" points="284.073,-970.776 294.463,-972.852 287.635,-964.75 284.073,-970.776"/>
<text text-anchor="middle" x="183" y="-901.8" font-family="Times,serif" font-size="14.00">letra</text>
</g>
<!-- 24 -->
<g id="node8" class="node"><title>24</title>
<ellipse fill="#fcfca9" stroke="black" cx="316" cy="-910" rx="27" ry="18"/>
<text text-anchor="middle" x="316" y="-906.3" font-family="Times,serif" font-size="14.00">24</text>
</g>
<!-- 0&#45;&gt;24 -->
<g id="edge7" class="edge"><title>0&#45;&gt;24</title>
<path fill="none" stroke="black" d="M125.543,-657.017C132.385,-698.742 155.047,-802.73 217,-859 235.912,-876.177 261.676,-889.286 282.04,-897.911"/>
<polygon fill="black" stroke="black" points="280.969,-901.253 291.55,-901.782 283.608,-894.77 280.969,-901.253"/>
<text text-anchor="middle" x="183" y="-843.8" font-family="Times,serif" font-size="14.00">digito</text>
</g>
<!-- 5 -->
<g id="node9" class="node"><title>5</title>
<ellipse fill="#fcfca9" stroke="black" cx="244" cy="-832" rx="27" ry="18"/>
<text text-anchor="middle" x="244" y="-828.3" font-family="Times,serif" font-size="14.00">5</text>
</g>
<!-- 0&#45;&gt;5 -->
<g id="edge8" class="edge"><title>0&#45;&gt;5</title>
<path fill="none" stroke="black" d="M132.637,-655.55C141.453,-670.607 154.922,-693.406 167,-713 187.188,-745.752 211.189,-783.073 226.739,-807.05"/>
<polygon fill="black" stroke="black" points="223.877,-809.07 232.259,-815.549 229.747,-805.257 223.877,-809.07"/>
<text text-anchor="middle" x="183" y="-766.8" font-family="Times,serif" font-size="14.00">=</text>
</g>
<!-- 9 -->
<g id="node10" class="node"><title>9</title>
<ellipse fill="#fcfca9" stroke="black" cx="244" cy="-727" rx="27" ry="18"/>
<text text-anchor="middle" x="244" y="-723.3" font-family="Times,serif" font-size="14.00">9</text>
</g>
<!-- 0&#45;&gt;9 -->
<g id="edge9" class="edge"><title>0&#45;&gt;9</title>
<path fill="none" stroke="black" d="M140.706,-651.985C160.824,-666.738 193.849,-690.956 216.916,-707.872"/>
<polygon fill="black" stroke="black" points="215.087,-710.871 225.221,-713.962 219.227,-705.226 215.087,-710.871"/>
<text text-anchor="middle" x="183" y="-697.8" font-family="Times,serif" font-size="14.00">&lt;</text>
</g>
<!-- 11 -->
<g id="node11" class="node"><title>11</title>
<ellipse fill="#fcfca9" stroke="black" cx="244" cy="-639" rx="27" ry="18"/>
<text text-anchor="middle" x="244" y="-635.3" font-family="Times,serif" font-size="14.00">11</text>
</g>
<!-- 0&#45;&gt;11 -->
<g id="edge10" class="edge"><title>0&#45;&gt;11</title>
<path fill="none" stroke="black" d="M149.038,-639C165.827,-639 187.905,-639 206.441,-639"/>
<polygon fill="black" stroke="black" points="206.598,-642.5 216.598,-639 206.598,-635.5 206.598,-642.5"/>
<text text-anchor="middle" x="183" y="-642.8" font-family="Times,serif" font-size="14.00">&gt;</text>
</g>
<!-- 27 -->
<g id="node12" class="node"><title>27</title>
<ellipse fill="#fcfca9" stroke="black" cx="316" cy="-580" rx="27" ry="18"/>
<text text-anchor="middle" x="316" y="-576.3" font-family="Times,serif" font-size="14.00">27</text>
</g>
<!-- 0&#45;&gt;27 -->
<g id="edge11" class="edge"><title>0&#45;&gt;27</title>
<path fill="none" stroke="black" d="M144.688,-628.9C151.722,-625.824 159.615,-622.577 167,-620 204.99,-606.741 249.723,-595.193 279.987,-587.958"/>
<polygon fill="black" stroke="black" points="281.124,-591.286 290.054,-585.584 279.517,-584.473 281.124,-591.286"/>
<text text-anchor="middle" x="183" y="-623.8" font-family="Times,serif" font-size="14.00">?</text>
</g>
<!-- 26 -->
<g id="node13" class="node"><title>26</title>
<ellipse fill="#fcfca9" stroke="black" cx="388" cy="-517" rx="27" ry="18"/>
<text text-anchor="middle" x="388" y="-513.3" font-family="Times,serif" font-size="14.00">26</text>
</g>
<!-- 0&#45;&gt;26 -->
<g id="edge12" class="edge"><title>0&#45;&gt;26</title>
<path fill="none" stroke="black" d="M140.419,-625.645C148.449,-619.564 158.143,-612.328 167,-606 188.866,-590.378 192.861,-583.811 217,-572 261.761,-550.099 317.287,-534.027 352.442,-525.092"/>
<polygon fill="black" stroke="black" points="353.369,-528.468 362.227,-522.656 351.678,-521.676 353.369,-528.468"/>
<text text-anchor="middle" x="244" y="-575.8" font-family="Times,serif" font-size="14.00">:</text>
</g>
<!-- 21 -->
<g id="node14" class="node"><title>21</title>
<ellipse fill="#fcfca9" stroke="black" cx="244" cy="-463" rx="27" ry="18"/>
<text text-anchor="middle" x="244" y="-459.3" font-family="Times,serif" font-size="14.00">21</text>
</g>
<!-- 0&#45;&gt;21 -->
<g id="edge13" class="edge"><title>0&#45;&gt;21</title>
<path fill="none" stroke="black" d="M123.927,-621.012C126.358,-591.606 135.155,-532.922 167,-497 177.829,-484.784 193.895,-476.73 208.469,-471.542"/>
<polygon fill="black" stroke="black" points="209.795,-474.792 218.238,-468.393 207.647,-468.13 209.795,-474.792"/>
<text text-anchor="middle" x="183" y="-500.8" font-family="Times,serif" font-size="14.00">!</text>
</g>
<!-- 23 -->
<g id="node15" class="node"><title>23</title>
<ellipse fill="#fcfca9" stroke="black" cx="244" cy="-54" rx="27" ry="18"/>
<text text-anchor="middle" x="244" y="-50.3" font-family="Times,serif" font-size="14.00">23</text>
</g>
<!-- 0&#45;&gt;23 -->
<g id="edge14" class="edge"><title>0&#45;&gt;23</title>
<path fill="none" stroke="black" d="M123.472,-620.862C125.924,-531.666 138.222,-142.051 167,-97 176.732,-81.7649 193.889,-71.3929 209.441,-64.6592"/>
<polygon fill="black" stroke="black" points="210.835,-67.8713 218.836,-60.9258 208.25,-61.3661 210.835,-67.8713"/>
<text text-anchor="middle" x="183" y="-100.8" font-family="Times,serif" font-size="14.00">&quot;</text>
</g>
<!-- 25 -->
<g id="node16" class="node"><title>25</title>
<ellipse fill="#fcfca9" stroke="black" cx="316" cy="-351" rx="27" ry="18"/>
<text text-anchor="middle" x="316" y="-347.3" font-family="Times,serif" font-size="14.00">25</text>
</g>
<!-- 0&#45;&gt;25 -->
<g id="edge15" class="edge"><title>0&#45;&gt;25</title>
<path fill="none" stroke="black" d="M123.31,-620.809C124.728,-586.048 131.926,-509.019 167,-457 196.313,-413.526 249.789,-381.882 283.8,-364.992"/>
<polygon fill="black" stroke="black" points="285.36,-368.126 292.841,-360.623 282.314,-361.823 285.36,-368.126"/>
<text text-anchor="middle" x="183" y="-460.8" font-family="Times,serif" font-size="14.00">.</text>
</g>
<!-- 2 -->
<g id="node17" class="node"><title>2</title>
<ellipse fill="#fcfca9" stroke="black" cx="316" cy="-310" rx="27" ry="18"/>
<text text-anchor="middle" x="316" y="-306.3" font-family="Times,serif" font-size="14.00">2</text>
</g>
<!-- 0&#45;&gt;2 -->
<g id="edge16" class="edge"><title>0&#45;&gt;2</title>
<path fill="none" stroke="black" d="M124.653,-620.806C129.343,-572.165 143.909,-440.35 167,-404 193.739,-361.907 246.867,-335.193 281.657,-321.412"/>
<polygon fill="black" stroke="black" points="283.283,-324.538 291.381,-317.707 280.79,-317.997 283.283,-324.538"/>
<text text-anchor="middle" x="183" y="-407.8" font-family="Times,serif" font-size="14.00">;</text>
</g>
<!-- 18 -->
<g id="node18" class="node"><title>18</title>
<ellipse fill="#fcfca9" stroke="black" cx="388" cy="-256" rx="27" ry="18"/>
<text text-anchor="middle" x="388" y="-252.3" font-family="Times,serif" font-size="14.00">18</text>
</g>
<!-- 0&#45;&gt;18 -->
<g id="edge17" class="edge"><title>0&#45;&gt;18</title>
<path fill="none" stroke="black" d="M122.531,-620.686C122.065,-575.124 125.168,-453.938 167,-365 181.343,-334.506 188.812,-326.467 217,-308 245.1,-289.591 256.892,-294.878 289,-285 310.275,-278.455 334.233,-271.36 353.136,-265.827"/>
<polygon fill="black" stroke="black" points="354.174,-269.169 362.792,-263.006 352.212,-262.45 354.174,-269.169"/>
<text text-anchor="middle" x="244" y="-311.8" font-family="Times,serif" font-size="14.00">(</text>
</g>
<!-- 19 -->
<g id="node19" class="node"><title>19</title>
<ellipse fill="#fcfca9" stroke="black" cx="388" cy="-1144" rx="27" ry="18"/>
<text text-anchor="middle" x="388" y="-1140.3" font-family="Times,serif" font-size="14.00">19</text>
</g>
<!-- 0&#45;&gt;19 -->
<g id="edge18" class="edge"><title>0&#45;&gt;19</title>
<path fill="none" stroke="black" d="M123.444,-657.138C125.612,-738.882 136.258,-1070.51 167,-1104 213.714,-1154.89 301.78,-1154.36 351.142,-1149.3"/>
<polygon fill="black" stroke="black" points="351.813,-1152.75 361.351,-1148.14 351.018,-1145.8 351.813,-1152.75"/>
<text text-anchor="middle" x="244" y="-1152.8" font-family="Times,serif" font-size="14.00">)</text>
</g>
<!-- 20 -->
<g id="node20" class="node"><title>20</title>
<ellipse fill="#fcfca9" stroke="black" cx="316" cy="-220" rx="27" ry="18"/>
<text text-anchor="middle" x="316" y="-216.3" font-family="Times,serif" font-size="14.00">20</text>
</g>
<!-- 0&#45;&gt;20 -->
<g id="edge19" class="edge"><title>0&#45;&gt;20</title>
<path fill="none" stroke="black" d="M123.73,-620.819C126.879,-546.66 140.357,-269.653 167,-242 195.666,-212.248 245.839,-210.972 279.73,-214.274"/>
<polygon fill="black" stroke="black" points="279.349,-217.753 289.684,-215.419 280.149,-210.799 279.349,-217.753"/>
<text text-anchor="middle" x="183" y="-245.8" font-family="Times,serif" font-size="14.00">,</text>
</g>
<!-- 7 -->
<g id="node21" class="node"><title>7</title>
<ellipse fill="#fcfca9" stroke="black" cx="388" cy="-151" rx="27" ry="18"/>
<text text-anchor="middle" x="388" y="-147.3" font-family="Times,serif" font-size="14.00">7</text>
</g>
<!-- 0&#45;&gt;7 -->
<g id="edge20" class="edge"><title>0&#45;&gt;7</title>
<path fill="none" stroke="black" d="M122.618,-620.822C121.444,-548.918 120.441,-285.075 167,-219 208.276,-160.422 299.61,-150.538 350.664,-149.876"/>
<polygon fill="black" stroke="black" points="350.92,-153.376 360.915,-149.86 350.909,-146.376 350.92,-153.376"/>
<text text-anchor="middle" x="244" y="-180.8" font-family="Times,serif" font-size="14.00">{</text>
</g>
<!-- 8 -->
<g id="node22" class="node"><title>8</title>
<ellipse fill="#fcfca9" stroke="black" cx="316" cy="-115" rx="27" ry="18"/>
<text text-anchor="middle" x="316" y="-111.3" font-family="Times,serif" font-size="14.00">8</text>
</g>
<!-- 0&#45;&gt;8 -->
<g id="edge21" class="edge"><title>0&#45;&gt;8</title>
<path fill="none" stroke="black" d="M123.413,-620.902C125.49,-536.982 135.947,-188.277 167,-152 181.427,-135.146 240.353,-124.506 279.359,-119.164"/>
<polygon fill="black" stroke="black" points="279.834,-122.632 289.292,-117.858 278.921,-115.691 279.834,-122.632"/>
<text text-anchor="middle" x="183" y="-155.8" font-family="Times,serif" font-size="14.00">}</text>
</g>
<!-- 3&#45;&gt;fin -->
<g id="edge22" class="edge"><title>3&#45;&gt;fin</title>
<path fill="none" stroke="black" d="M270.885,-1200.08C306.317,-1201.63 370.58,-1199.72 415,-1171 456.512,-1144.16 459.592,-1124.63 476,-1078 503.331,-1000.33 515.234,-750.005 518.787,-657.119"/>
<polygon fill="black" stroke="black" points="522.295,-656.97 519.17,-646.846 515.3,-656.709 522.295,-656.97"/>
<text text-anchor="middle" x="388" y="-1195.8" font-family="Times,serif" font-size="14.00">caracter</text>
</g>
<!-- 4 -->
<g id="node23" class="node"><title>4</title>
<ellipse fill="#fcfca9" stroke="black" cx="388" cy="-1249" rx="27" ry="18"/>
<text text-anchor="middle" x="388" y="-1245.3" font-family="Times,serif" font-size="14.00">4</text>
</g>
<!-- 3&#45;&gt;4 -->
<g id="edge23" class="edge"><title>3&#45;&gt;4</title>
<path fill="none" stroke="black" d="M268.131,-1206.31C291.545,-1214.72 327.961,-1227.8 354.318,-1237.26"/>
<polygon fill="black" stroke="black" points="353.285,-1240.61 363.879,-1240.7 355.651,-1234.02 353.285,-1240.61"/>
<text text-anchor="middle" x="316" y="-1235.8" font-family="Times,serif" font-size="14.00">+</text>
</g>
<!-- 15&#45;&gt;fin -->
<g id="edge24" class="edge"><title>15&#45;&gt;fin</title>
<path fill="none" stroke="black" d="M270.397,-1324.87C324.859,-1315.46 450.049,-1290.7 476,-1258 513.439,-1210.83 519.022,-784.121 519.854,-657.355"/>
<polygon fill="black" stroke="black" points="523.356,-657.073 519.915,-647.052 516.356,-657.031 523.356,-657.073"/>
<text text-anchor="middle" x="388" y="-1308.8" font-family="Times,serif" font-size="14.00">caracter</text>
</g>
<!-- 29 -->
<g id="node24" class="node"><title>29</title>
<ellipse fill="#fcfca9" stroke="black" cx="388" cy="-1354" rx="27" ry="18"/>
<text text-anchor="middle" x="388" y="-1350.3" font-family="Times,serif" font-size="14.00">29</text>
</g>
<!-- 15&#45;&gt;29 -->
<g id="edge25" class="edge"><title>15&#45;&gt;29</title>
<path fill="none" stroke="black" d="M270.387,-1333.47C292.963,-1337.44 326.211,-1343.3 351.434,-1347.74"/>
<polygon fill="black" stroke="black" points="350.899,-1351.2 361.354,-1349.48 352.113,-1344.3 350.899,-1351.2"/>
<text text-anchor="middle" x="316" y="-1348.8" font-family="Times,serif" font-size="14.00">&#45;</text>
</g>
<!-- 16&#45;&gt;fin -->
<g id="edge26" class="edge"><title>16&#45;&gt;fin</title>
<path fill="none" stroke="black" d="M343.131,-1094.09C379.096,-1094.02 443.124,-1087.97 476,-1049 501.1,-1019.25 514.537,-753.676 518.63,-656.997"/>
<polygon fill="black" stroke="black" points="522.133,-656.995 519.051,-646.858 515.139,-656.704 522.133,-656.995"/>
<text text-anchor="middle" x="388" y="-1096.8" font-family="Times,serif" font-size="14.00">caracter</text>
</g>
<!-- 17&#45;&gt;fin -->
<g id="edge27" class="edge"><title>17&#45;&gt;fin</title>
<path fill="none" stroke="black" d="M414.621,-1035.19C434.649,-1030.78 461.455,-1021.46 476,-1002 516.383,-947.985 520.384,-740.502 520.313,-657.056"/>
<polygon fill="black" stroke="black" points="523.813,-656.811 520.283,-646.821 516.813,-656.831 523.813,-656.811"/>
<text text-anchor="middle" x="454.5" y="-1033.8" font-family="Times,serif" font-size="14.00">caracter</text>
</g>
<!-- 1&#45;&gt;fin -->
<g id="edge28" class="edge"><title>1&#45;&gt;fin</title>
<path fill="none" stroke="black" d="M343.111,-982.257C379.052,-978.36 443.052,-965.757 476,-925 508.819,-884.403 517.179,-727.733 519.292,-657.003"/>
<polygon fill="black" stroke="black" points="522.796,-656.909 519.571,-646.817 515.799,-656.718 522.796,-656.909"/>
<text text-anchor="middle" x="388" y="-983.8" font-family="Times,serif" font-size="14.00">caracter</text>
</g>
<!-- 1&#45;&gt;1 -->
<g id="edge29" class="edge"><title>1&#45;&gt;1</title>
<path fill="none" stroke="black" d="M303.453,-1000.29C300.427,-1010.39 304.609,-1020 316,-1020 323.297,-1020 327.636,-1016.06 329.017,-1010.57"/>
<polygon fill="black" stroke="black" points="332.5,-1010.12 328.547,-1000.29 325.507,-1010.44 332.5,-1010.12"/>
<text text-anchor="middle" x="316" y="-1023.8" font-family="Times,serif" font-size="14.00">letra, digito</text>
</g>
<!-- 24&#45;&gt;fin -->
<g id="edge30" class="edge"><title>24&#45;&gt;fin</title>
<path fill="none" stroke="black" d="M341.069,-916.831C375.72,-925.046 439.498,-933.856 476,-900 510.773,-867.748 518.11,-724.568 519.625,-657.228"/>
<polygon fill="black" stroke="black" points="523.127,-657.166 519.822,-647.1 516.129,-657.03 523.127,-657.166"/>
<text text-anchor="middle" x="388" y="-928.8" font-family="Times,serif" font-size="14.00">caracter</text>
</g>
<!-- 24&#45;&gt;24 -->
<g id="edge31" class="edge"><title>24&#45;&gt;24</title>
<path fill="none" stroke="black" d="M303.453,-926.29C300.427,-936.389 304.609,-946 316,-946 323.297,-946 327.636,-942.056 329.017,-936.566"/>
<polygon fill="black" stroke="black" points="332.5,-936.12 328.547,-926.29 325.507,-936.44 332.5,-936.12"/>
<text text-anchor="middle" x="316" y="-949.8" font-family="Times,serif" font-size="14.00">digito, .</text>
</g>
<!-- 5&#45;&gt;fin -->
<g id="edge32" class="edge"><title>5&#45;&gt;fin</title>
<path fill="none" stroke="black" d="M266.03,-842.59C273.161,-845.769 281.279,-848.953 289,-851 369.594,-872.366 421.873,-899.42 476,-836 498.68,-809.426 511.504,-710.282 516.911,-656.772"/>
<polygon fill="black" stroke="black" points="520.405,-657.006 517.895,-646.713 513.438,-656.325 520.405,-657.006"/>
<text text-anchor="middle" x="388" y="-879.8" font-family="Times,serif" font-size="14.00">caracter</text>
</g>
<!-- 6 -->
<g id="node25" class="node"><title>6</title>
<ellipse fill="#fcfca9" stroke="black" cx="388" cy="-832" rx="27" ry="18"/>
<text text-anchor="middle" x="388" y="-828.3" font-family="Times,serif" font-size="14.00">6</text>
</g>
<!-- 5&#45;&gt;6 -->
<g id="edge33" class="edge"><title>5&#45;&gt;6</title>
<path fill="none" stroke="black" d="M271.045,-832C293.324,-832 325.634,-832 350.493,-832"/>
<polygon fill="black" stroke="black" points="350.639,-835.5 360.639,-832 350.639,-828.5 350.639,-835.5"/>
<text text-anchor="middle" x="316" y="-835.8" font-family="Times,serif" font-size="14.00">=</text>
</g>
<!-- 9&#45;&gt;fin -->
<g id="edge34" class="edge"><title>9&#45;&gt;fin</title>
<path fill="none" stroke="black" d="M270.781,-723.658C315.138,-717.061 407.703,-699.525 476,-661 482.846,-657.138 489.554,-652.071 495.588,-646.874"/>
<polygon fill="black" stroke="black" points="498.312,-649.127 503.348,-639.806 493.599,-643.952 498.312,-649.127"/>
<text text-anchor="middle" x="388" y="-709.8" font-family="Times,serif" font-size="14.00">caracter</text>
</g>
<!-- 10 -->
<g id="node26" class="node"><title>10</title>
<ellipse fill="#fcfca9" stroke="black" cx="388" cy="-778" rx="27" ry="18"/>
<text text-anchor="middle" x="388" y="-774.3" font-family="Times,serif" font-size="14.00">10</text>
</g>
<!-- 9&#45;&gt;10 -->
<g id="edge35" class="edge"><title>9&#45;&gt;10</title>
<path fill="none" stroke="black" d="M268.131,-735.308C291.545,-743.717 327.961,-756.796 354.318,-766.262"/>
<polygon fill="black" stroke="black" points="353.285,-769.61 363.879,-769.696 355.651,-763.022 353.285,-769.61"/>
<text text-anchor="middle" x="316" y="-765.8" font-family="Times,serif" font-size="14.00">=</text>
</g>
<!-- 11&#45;&gt;fin -->
<g id="edge36" class="edge"><title>11&#45;&gt;fin</title>
<path fill="none" stroke="black" d="M267.971,-647.776C274.652,-649.925 282.029,-651.918 289,-653 371.296,-665.777 395.713,-663.135 476,-641 480.359,-639.798 484.85,-638.25 489.221,-636.558"/>
<polygon fill="black" stroke="black" points="490.61,-639.771 498.499,-632.699 487.922,-633.308 490.61,-639.771"/>
<text text-anchor="middle" x="388" y="-664.8" font-family="Times,serif" font-size="14.00">caracter</text>
</g>
<!-- 12 -->
<g id="node27" class="node"><title>12</title>
<ellipse fill="#fcfca9" stroke="black" cx="388" cy="-622" rx="27" ry="18"/>
<text text-anchor="middle" x="388" y="-618.3" font-family="Times,serif" font-size="14.00">12</text>
</g>
<!-- 11&#45;&gt;12 -->
<g id="edge37" class="edge"><title>11&#45;&gt;12</title>
<path fill="none" stroke="black" d="M270.715,-635.921C293.094,-633.242 325.773,-629.33 350.794,-626.334"/>
<polygon fill="black" stroke="black" points="351.483,-629.777 360.996,-625.113 350.651,-622.827 351.483,-629.777"/>
<text text-anchor="middle" x="316" y="-637.8" font-family="Times,serif" font-size="14.00">=</text>
</g>
<!-- 27&#45;&gt;fin -->
<g id="edge38" class="edge"><title>27&#45;&gt;fin</title>
<path fill="none" stroke="black" d="M343.046,-577.34C362.941,-575.946 390.942,-575.367 415,-580 441.13,-585.032 469.023,-596.509 489.489,-606.195"/>
<polygon fill="black" stroke="black" points="488.092,-609.408 498.617,-610.63 491.151,-603.112 488.092,-609.408"/>
<text text-anchor="middle" x="388" y="-583.8" font-family="Times,serif" font-size="14.00">caracter</text>
</g>
<!-- 26&#45;&gt;fin -->
<g id="edge39" class="edge"><title>26&#45;&gt;fin</title>
<path fill="none" stroke="black" d="M415.018,-519.173C433.702,-521.905 458.562,-528.074 476,-542 490.975,-553.959 501.62,-572.467 508.684,-588.669"/>
<polygon fill="black" stroke="black" points="505.622,-590.432 512.626,-598.381 512.108,-587.799 505.622,-590.432"/>
<text text-anchor="middle" x="454.5" y="-545.8" font-family="Times,serif" font-size="14.00">caracter</text>
</g>
<!-- 21&#45;&gt;fin -->
<g id="edge40" class="edge"><title>21&#45;&gt;fin</title>
<path fill="none" stroke="black" d="M264.279,-450.912C296.241,-432.482 361.939,-401.453 415,-421 448.429,-433.315 456.596,-443.123 476,-473 498.769,-508.057 510.095,-555.276 515.489,-587.083"/>
<polygon fill="black" stroke="black" points="512.077,-587.91 517.099,-597.239 518.99,-586.814 512.077,-587.91"/>
<text text-anchor="middle" x="388" y="-424.8" font-family="Times,serif" font-size="14.00">caracter</text>
</g>
<!-- 22 -->
<g id="node28" class="node"><title>22</title>
<ellipse fill="#fcfca9" stroke="black" cx="388" cy="-463" rx="27" ry="18"/>
<text text-anchor="middle" x="388" y="-459.3" font-family="Times,serif" font-size="14.00">22</text>
</g>
<!-- 21&#45;&gt;22 -->
<g id="edge41" class="edge"><title>21&#45;&gt;22</title>
<path fill="none" stroke="black" d="M271.045,-463C293.324,-463 325.634,-463 350.493,-463"/>
<polygon fill="black" stroke="black" points="350.639,-466.5 360.639,-463 350.639,-459.5 350.639,-466.5"/>
<text text-anchor="middle" x="316" y="-466.8" font-family="Times,serif" font-size="14.00">=</text>
</g>
<!-- 23&#45;&gt;23 -->
<g id="edge42" class="edge"><title>23&#45;&gt;23</title>
<path fill="none" stroke="black" d="M233.453,-70.6641C231.109,-80.625 234.625,-90 244,-90 250.006,-90 253.607,-86.1525 254.804,-80.7682"/>
<polygon fill="black" stroke="black" points="258.3,-80.5719 254.547,-70.6641 251.302,-80.7497 258.3,-80.5719"/>
<text text-anchor="middle" x="244" y="-93.8" font-family="Times,serif" font-size="14.00">caracter &#45; {&quot;}</text>
</g>
<!-- 28 -->
<g id="node29" class="node"><title>28</title>
<ellipse fill="#fcfca9" stroke="black" cx="388" cy="-46" rx="27" ry="18"/>
<text text-anchor="middle" x="388" y="-42.3" font-family="Times,serif" font-size="14.00">28</text>
</g>
<!-- 23&#45;&gt;28 -->
<g id="edge43" class="edge"><title>23&#45;&gt;28</title>
<path fill="none" stroke="black" d="M271.045,-52.5327C293.324,-51.2775 325.634,-49.4572 350.493,-48.0567"/>
<polygon fill="black" stroke="black" points="350.852,-51.5422 360.639,-47.4851 350.458,-44.5532 350.852,-51.5422"/>
<text text-anchor="middle" x="316" y="-55.8" font-family="Times,serif" font-size="14.00">&quot;</text>
</g>
<!-- 25&#45;&gt;fin -->
<g id="edge44" class="edge"><title>25&#45;&gt;fin</title>
<path fill="none" stroke="black" d="M343.072,-350.536C378.966,-351.439 442.91,-358.881 476,-398 499.805,-426.142 512.246,-531.651 517.27,-587.238"/>
<polygon fill="black" stroke="black" points="513.794,-587.671 518.15,-597.329 520.768,-587.063 513.794,-587.671"/>
<text text-anchor="middle" x="388" y="-365.8" font-family="Times,serif" font-size="14.00">caracter</text>
</g>
<!-- 25&#45;&gt;25 -->
<g id="edge45" class="edge"><title>25&#45;&gt;25</title>
<path fill="none" stroke="black" d="M303.453,-367.29C300.427,-377.389 304.609,-387 316,-387 323.297,-387 327.636,-383.056 329.017,-377.566"/>
<polygon fill="black" stroke="black" points="332.5,-377.12 328.547,-367.29 325.507,-377.44 332.5,-377.12"/>
<text text-anchor="middle" x="316" y="-390.8" font-family="Times,serif" font-size="14.00">digito</text>
</g>
<!-- 2&#45;&gt;fin -->
<g id="edge46" class="edge"><title>2&#45;&gt;fin</title>
<path fill="none" stroke="black" d="M343.156,-310.456C379.769,-312.67 445.256,-322.71 476,-365 501.351,-399.871 513.336,-525.133 517.811,-586.967"/>
<polygon fill="black" stroke="black" points="514.325,-587.299 518.513,-597.032 521.308,-586.812 514.325,-587.299"/>
<text text-anchor="middle" x="388" y="-327.8" font-family="Times,serif" font-size="14.00">caracter</text>
</g>
<!-- 18&#45;&gt;fin -->
<g id="edge47" class="edge"><title>18&#45;&gt;fin</title>
<path fill="none" stroke="black" d="M409.565,-244.688C429.064,-235.665 457.981,-226.952 476,-243 501.49,-265.702 514.457,-497.546 518.543,-587.029"/>
<polygon fill="black" stroke="black" points="515.055,-587.378 518.997,-597.212 522.048,-587.066 515.055,-587.378"/>
<text text-anchor="middle" x="454.5" y="-246.8" font-family="Times,serif" font-size="14.00">caracter</text>
</g>
<!-- 18&#45;&gt;fin -->
<g id="edge48" class="edge"><title>18&#45;&gt;fin</title>
<path fill="none" stroke="black" d="M415.104,-256.24C434.855,-257.911 461.05,-263.595 476,-281 514.911,-326.302 519.876,-509.103 520.189,-586.791"/>
<polygon fill="black" stroke="black" points="516.689,-587.036 520.205,-597.03 523.689,-587.024 516.689,-587.036"/>
<text text-anchor="middle" x="454.5" y="-284.8" font-family="Times,serif" font-size="14.00">caracter</text>
</g>
<!-- 20&#45;&gt;fin -->
<g id="edge49" class="edge"><title>20&#45;&gt;fin</title>
<path fill="none" stroke="black" d="M340.696,-212.693C376.391,-203.335 443.255,-192.558 476,-231 498.902,-257.887 513.517,-496.512 518.287,-587.219"/>
<polygon fill="black" stroke="black" points="514.796,-587.47 518.808,-597.276 521.786,-587.108 514.796,-587.47"/>
<text text-anchor="middle" x="388" y="-211.8" font-family="Times,serif" font-size="14.00">caracter</text>
</g>
<!-- 7&#45;&gt;fin -->
<g id="edge50" class="edge"><title>7&#45;&gt;fin</title>
<path fill="none" stroke="black" d="M415.25,-151.117C435.081,-152.72 461.313,-158.372 476,-176 502.13,-207.361 514.987,-487.007 518.773,-586.805"/>
<polygon fill="black" stroke="black" points="515.282,-587.114 519.151,-596.978 522.278,-586.854 515.282,-587.114"/>
<text text-anchor="middle" x="454.5" y="-179.8" font-family="Times,serif" font-size="14.00">caracter</text>
</g>
<!-- 8&#45;&gt;fin -->
<g id="edge51" class="edge"><title>8&#45;&gt;fin</title>
<path fill="none" stroke="black" d="M341.724,-108.77C361.885,-104.799 390.869,-101.644 415,-109 446.246,-118.525 459.318,-121.915 476,-150 519.802,-223.743 521.445,-490.305 520.544,-586.811"/>
<polygon fill="black" stroke="black" points="517.043,-586.891 520.434,-596.928 524.043,-586.967 517.043,-586.891"/>
<text text-anchor="middle" x="388" y="-112.8" font-family="Times,serif" font-size="14.00">caracter</text>
</g>
<!-- 4&#45;&gt;fin -->
<g id="edge52" class="edge"><title>4&#45;&gt;fin</title>
<path fill="none" stroke="black" d="M414.835,-1245.35C434.987,-1241.03 461.855,-1231.75 476,-1212 508.332,-1166.86 517.436,-777.072 519.485,-657.035"/>
<polygon fill="black" stroke="black" points="522.986,-656.977 519.652,-646.92 515.987,-656.861 522.986,-656.977"/>
<text text-anchor="middle" x="454.5" y="-1242.8" font-family="Times,serif" font-size="14.00">caracter</text>
</g>
<!-- 29&#45;&gt;fin -->
<g id="edge60" class="edge"><title>29&#45;&gt;fin</title>
<path fill="none" stroke="black" d="M405.509,-1340.21C413.512,-1333.9 423.442,-1326.6 433,-1321 451.029,-1310.44 464.036,-1319.13 476,-1302 513.062,-1248.94 518.913,-789.648 519.831,-657.456"/>
<polygon fill="black" stroke="black" points="523.333,-657.121 519.897,-647.099 516.333,-657.076 523.333,-657.121"/>
<text text-anchor="middle" x="454.5" y="-1324.8" font-family="Times,serif" font-size="14.00">caracter</text>
</g>
<!-- 30 -->
<g id="node32" class="node"><title>30</title>
<ellipse fill="#fcfca9" stroke="black" cx="521" cy="-1321" rx="27" ry="18"/>
<text text-anchor="middle" x="521" y="-1317.3" font-family="Times,serif" font-size="14.00">30</text>
</g>
<!-- 29&#45;&gt;30 -->
<g id="edge61" class="edge"><title>29&#45;&gt;30</title>
<path fill="none" stroke="black" d="M414.876,-1351.54C432.377,-1349.46 455.878,-1345.86 476,-1340 480.434,-1338.71 485.013,-1337.08 489.466,-1335.33"/>
<polygon fill="black" stroke="black" points="491.041,-1338.47 498.909,-1331.37 488.333,-1332.01 491.041,-1338.47"/>
<text text-anchor="middle" x="454.5" y="-1351.8" font-family="Times,serif" font-size="14.00">/</text>
</g>
<!-- 6&#45;&gt;fin -->
<g id="edge53" class="edge"><title>6&#45;&gt;fin</title>
<path fill="none" stroke="black" d="M413.176,-825.177C432.897,-818.385 460.02,-806.036 476,-786 505.78,-748.663 515.489,-692.903 518.605,-656.99"/>
<polygon fill="black" stroke="black" points="522.098,-657.203 519.347,-646.972 515.117,-656.686 522.098,-657.203"/>
<text text-anchor="middle" x="454.5" y="-820.8" font-family="Times,serif" font-size="14.00">caracter</text>
</g>
<!-- 10&#45;&gt;fin -->
<g id="edge54" class="edge"><title>10&#45;&gt;fin</title>
<path fill="none" stroke="black" d="M414.227,-772.985C433.494,-767.941 459.466,-758.346 476,-741 498.137,-717.775 509.328,-682.452 514.862,-656.319"/>
<polygon fill="black" stroke="black" points="518.308,-656.931 516.779,-646.447 511.437,-655.596 518.308,-656.931"/>
<text text-anchor="middle" x="454.5" y="-770.8" font-family="Times,serif" font-size="14.00">caracter</text>
</g>
<!-- 12&#45;&gt;fin -->
<g id="edge55" class="edge"><title>12&#45;&gt;fin</title>
<path fill="none" stroke="black" d="M415.195,-622C435.472,-622 463.723,-622 485.785,-622"/>
<polygon fill="black" stroke="black" points="486.056,-625.5 496.056,-622 486.056,-618.5 486.056,-625.5"/>
<text text-anchor="middle" x="454.5" y="-625.8" font-family="Times,serif" font-size="14.00">caracter</text>
</g>
<!-- 22&#45;&gt;fin -->
<g id="edge62" class="edge"><title>22&#45;&gt;fin</title>
<path fill="none" stroke="black" d="M413.455,-469.023C432.806,-474.95 459.27,-485.812 476,-504 497.335,-527.195 508.594,-561.679 514.359,-587.386"/>
<polygon fill="black" stroke="black" points="510.99,-588.375 516.442,-597.459 517.845,-586.958 510.99,-588.375"/>
<text text-anchor="middle" x="454.5" y="-507.8" font-family="Times,serif" font-size="14.00">caracter</text>
</g>
<!-- 28&#45;&gt;fin -->
<g id="edge63" class="edge"><title>28&#45;&gt;fin</title>
<path fill="none" stroke="black" d="M415.341,-46.0414C435.223,-47.6028 461.478,-53.2362 476,-71 508.616,-110.896 517.475,-471.741 519.482,-586.871"/>
<polygon fill="black" stroke="black" points="515.983,-586.978 519.651,-596.917 522.982,-586.86 515.983,-586.978"/>
<text text-anchor="middle" x="454.5" y="-74.8" font-family="Times,serif" font-size="14.00">caracter</text>
</g>
<!-- 13 -->
<g id="node30" class="node"><title>13</title>
<ellipse fill="#fcfca9" stroke="black" cx="27" cy="-278" rx="27" ry="18"/>
<text text-anchor="middle" x="27" y="-274.3" font-family="Times,serif" font-size="14.00">13</text>
</g>
<!-- 13&#45;&gt;fin -->
<g id="edge56" class="edge"><title>13&#45;&gt;fin</title>
<path fill="none" stroke="black" d="M30.0763,-259.76C37.6156,-197.912 66.0356,-0 121,-0 121,-0 121,-0 389,-0 432.533,-0 451.969,-8.70083 476,-45 505.881,-90.136 516.635,-468.231 519.289,-586.67"/>
<polygon fill="black" stroke="black" points="515.797,-587.064 519.514,-596.985 522.795,-586.911 515.797,-587.064"/>
<text text-anchor="middle" x="244" y="-3.8" font-family="Times,serif" font-size="14.00">caracter</text>
</g>
<!-- 14 -->
<g id="node31" class="node"><title>14</title>
<ellipse fill="#fcfca9" stroke="black" cx="122" cy="-1079" rx="27" ry="18"/>
<text text-anchor="middle" x="122" y="-1075.3" font-family="Times,serif" font-size="14.00">14</text>
</g>
<!-- 13&#45;&gt;14 -->
<g id="edge57" class="edge"><title>13&#45;&gt;14</title>
<path fill="none" stroke="black" d="M30.1172,-296.235C42.2415,-400.661 102.844,-922.622 117.706,-1050.63"/>
<polygon fill="black" stroke="black" points="114.256,-1051.26 118.886,-1060.79 121.209,-1050.46 114.256,-1051.26"/>
<text text-anchor="middle" x="74.5" y="-682.8" font-family="Times,serif" font-size="14.00">&#45;</text>
</g>
<!-- 14&#45;&gt;15 -->
<g id="edge58" class="edge"><title>14&#45;&gt;15</title>
<path fill="none" stroke="black" d="M124.286,-1096.98C128.015,-1144.36 140.312,-1271.08 167,-1302 177.087,-1313.69 192.58,-1320.31 206.953,-1324.07"/>
<polygon fill="black" stroke="black" points="206.606,-1327.58 217.127,-1326.33 208.125,-1320.75 206.606,-1327.58"/>
<text text-anchor="middle" x="183" y="-1324.8" font-family="Times,serif" font-size="14.00">&#45;</text>
</g>
<!-- 14&#45;&gt;14 -->
<g id="edge59" class="edge"><title>14&#45;&gt;14</title>
<path fill="none" stroke="black" d="M113.788,-1096.41C112.255,-1106.09 114.992,-1115 122,-1115 126.38,-1115 129.092,-1111.52 130.135,-1106.54"/>
<polygon fill="black" stroke="black" points="133.636,-1106.44 130.212,-1096.41 126.636,-1106.38 133.636,-1106.44"/>
<text text-anchor="middle" x="122" y="-1118.8" font-family="Times,serif" font-size="14.00">caracter &#45; {&#45;}</text>
</g>
<!-- 30&#45;&gt;30 -->
<g id="edge64" class="edge"><title>30&#45;&gt;30</title>
<path fill="none" stroke="black" d="M509.498,-1337.29C506.725,-1347.39 510.559,-1357 521,-1357 527.689,-1357 531.666,-1353.06 532.932,-1347.57"/>
<polygon fill="black" stroke="black" points="536.417,-1347.14 532.502,-1337.29 529.423,-1347.43 536.417,-1347.14"/>
<text text-anchor="middle" x="521" y="-1360.8" font-family="Times,serif" font-size="14.00">caracter</text>
</g>
<!-- 31 -->
<g id="node33" class="node"><title>31</title>
<ellipse fill="#fcfca9" stroke="black" cx="699.5" cy="-1350" rx="27" ry="18"/>
<text text-anchor="middle" x="699.5" y="-1346.3" font-family="Times,serif" font-size="14.00">31</text>
</g>
<!-- 30&#45;&gt;31 -->
<g id="edge65" class="edge"><title>30&#45;&gt;31</title>
<path fill="none" stroke="black" d="M541.467,-1332.89C548.882,-1336.83 557.577,-1340.78 566,-1343 597.852,-1351.41 635.468,-1352.61 662.467,-1352.03"/>
<polygon fill="black" stroke="black" points="662.732,-1355.52 672.619,-1351.72 662.516,-1348.53 662.732,-1355.52"/>
<text text-anchor="middle" x="602.5" y="-1354.8" font-family="Times,serif" font-size="14.00">/</text>
</g>
<!-- 31&#45;&gt;30 -->
<g id="edge66" class="edge"><title>31&#45;&gt;30</title>
<path fill="none" stroke="black" d="M678.24,-1338.81C667.032,-1333.23 652.645,-1327.03 639,-1324 612.339,-1318.07 581.42,-1317.54 558.065,-1318.38"/>
<polygon fill="black" stroke="black" points="557.738,-1314.89 547.908,-1318.84 558.058,-1321.88 557.738,-1314.89"/>
<text text-anchor="middle" x="602.5" y="-1327.8" font-family="Times,serif" font-size="14.00">caracter &#45; {&#45;}</text>
</g>
<!-- 32 -->
<g id="node34" class="node"><title>32</title>
<ellipse fill="#fcfca9" stroke="black" cx="810" cy="-1348" rx="27" ry="18"/>
<text text-anchor="middle" x="810" y="-1344.3" font-family="Times,serif" font-size="14.00">32</text>
</g>
<!-- 31&#45;&gt;32 -->
<g id="edge67" class="edge"><title>31&#45;&gt;32</title>
<path fill="none" stroke="black" d="M720.551,-1338.37C733.141,-1332.42 749.815,-1327.01 765,-1330 769.495,-1330.88 774.108,-1332.23 778.578,-1333.8"/>
<polygon fill="black" stroke="black" points="777.444,-1337.11 788.032,-1337.49 779.989,-1330.59 777.444,-1337.11"/>
<text text-anchor="middle" x="762.5" y="-1333.8" font-family="Times,serif" font-size="14.00">&#45;</text>
</g>
<!-- 32&#45;&gt;0 -->
<g id="edge68" class="edge"><title>32&#45;&gt;0</title>
<path fill="none" stroke="black" d="M792.155,-1361.94C771.779,-1377.34 735.801,-1400 700.5,-1400 243,-1400 243,-1400 243,-1400 182.106,-1400 186.614,-1343.65 167,-1286 161.94,-1271.13 132.24,-790.097 124.726,-667.308"/>
<polygon fill="black" stroke="black" points="128.212,-666.959 124.108,-657.192 121.225,-667.387 128.212,-666.959"/>
<text text-anchor="middle" x="454.5" y="-1403.8" font-family="Times,serif" font-size="14.00">&#45;</text>
</g>
<!-- 32&#45;&gt;30 -->
<g id="edge69" class="edge"><title>32&#45;&gt;30</title>
<path fill="none" stroke="black" d="M792.007,-1334.31C779.131,-1324.86 760.545,-1313.11 742,-1308 678.146,-1290.39 600.045,-1302.54 556.167,-1312.26"/>
<polygon fill="black" stroke="black" points="555.259,-1308.87 546.3,-1314.53 556.83,-1315.7 555.259,-1308.87"/>
<text text-anchor="middle" x="699.5" y="-1311.8" font-family="Times,serif" font-size="14.00">caracter &#45; {&#45;, /}</text>
</g>
<!-- 32&#45;&gt;31 -->
<g id="edge70" class="edge"><title>32&#45;&gt;31</title>
<path fill="none" stroke="black" d="M782.977,-1348.48C769.156,-1348.73 751.947,-1349.05 736.829,-1349.33"/>
<polygon fill="black" stroke="black" points="736.699,-1345.83 726.765,-1349.52 736.828,-1352.83 736.699,-1345.83"/>
<text text-anchor="middle" x="762.5" y="-1351.8" font-family="Times,serif" font-size="14.00">/</text>
</g>
</g>
</svg>
